<?xml version="1.0" standalone="no"?>
<!DOCTYPE svg PUBLIC "-//W3C//DTD SVG 20010904//EN"
 "http://www.w3.org/TR/2001/REC-SVG-20010904/DTD/svg10.dtd">
<svg version="1.0" xmlns="http://www.w3.org/2000/svg"
 width="468.000000pt" height="400.000000pt" viewBox="0 0 468.000000 400.000000"
 preserveAspectRatio="xMidYMid meet">

<g transform="translate(0.000000,400.000000) scale(0.100000,-0.100000)"
fill="#000000" stroke="none">
<path d="M1766 3359 c-80 -23 -122 -130 -81 -209 20 -38 43 -50 97 -50 84 0
88 4 88 76 l0 64 -45 0 c-38 0 -45 -3 -45 -20 0 -13 7 -20 20 -20 16 0 20 -7
20 -30 0 -27 -3 -30 -34 -30 -44 0 -58 19 -64 83 -3 46 -1 55 22 76 24 23 30
24 67 14 35 -9 41 -8 50 9 6 11 7 24 2 28 -14 13 -67 18 -97 9z"/>
<path d="M1113 3230 c1 -128 1 -130 24 -130 21 0 23 5 23 50 0 49 1 50 30 50
67 0 107 93 60 140 -16 16 -33 20 -79 20 l-60 0 2 -130z m105 55 c3 -19 -2
-33 -14 -42 -33 -24 -44 -16 -44 33 0 44 1 45 28 42 22 -2 28 -9 30 -33z"/>
<path d="M1310 3230 c0 -128 0 -130 23 -130 22 0 22 2 24 130 l1 130 -24 0
-24 0 0 -130z"/>
<path d="M1425 3230 c0 -130 0 -130 23 -130 24 0 24 1 17 85 -4 47 -3 85 1 85
5 0 31 -38 58 -83 27 -45 51 -84 52 -85 1 -2 12 -1 23 3 20 6 21 14 21 131 0
117 -1 124 -20 124 -17 0 -19 -8 -22 -87 l-3 -87 -50 84 c-39 66 -56 86 -75
88 l-25 3 0 -131z"/>
<path d="M1946 3339 c-19 -15 -26 -30 -26 -53 0 -37 18 -57 73 -79 25 -11 37
-22 37 -36 0 -28 -33 -35 -70 -16 -30 15 -33 15 -45 -2 -12 -16 -11 -20 8 -35
36 -28 93 -23 128 11 51 51 33 95 -54 134 -66 30 -33 68 39 44 16 -6 23 -2 32
17 14 31 8 36 -48 36 -33 0 -55 -6 -74 -21z"/>
<path d="M2090 3340 c0 -16 7 -20 35 -20 l35 0 0 -110 c0 -108 0 -110 23 -110
22 0 22 1 19 110 l-4 110 36 0 c29 0 36 4 36 20 0 19 -7 20 -90 20 -83 0 -90
-1 -90 -20z"/>
<path d="M2310 3230 l0 -130 25 0 c24 0 25 3 25 62 l0 62 43 -62 c23 -34 45
-62 48 -62 3 0 14 6 24 14 18 13 18 15 -10 51 -63 78 -61 70 -16 122 38 43 40
48 26 62 -18 17 -21 15 -87 -70 l-27 -34 -1 58 c0 54 -1 57 -25 57 l-25 0 0
-130z"/>
<path d="M2502 3353 c2 -5 20 -41 41 -80 28 -56 37 -84 37 -123 0 -47 2 -50
25 -50 23 0 25 3 25 50 0 39 9 67 37 123 21 39 39 75 41 80 2 4 -7 7 -20 7
-19 0 -30 -12 -52 -57 l-29 -58 -26 57 c-23 50 -30 57 -54 58 -16 0 -27 -3
-25 -7z"/>
<path d="M2750 3230 l0 -130 26 0 c26 0 26 1 20 50 -6 44 -4 50 11 50 11 0 29
-19 46 -51 20 -35 34 -49 44 -45 8 3 17 6 19 6 10 0 2 24 -22 60 l-26 39 21
27 c26 34 27 78 1 104 -16 16 -33 20 -80 20 l-60 0 0 -130z m106 75 c4 -8 3
-26 0 -40 -5 -20 -13 -25 -37 -25 -24 0 -30 3 -25 16 3 9 6 27 6 40 0 19 5 24
25 24 14 0 28 -7 31 -15z"/>
<path d="M2976 3352 c-2 -4 -4 -63 -3 -130 1 -120 1 -122 23 -122 21 0 23 5
26 61 l3 61 43 -61 c23 -34 46 -61 50 -61 4 0 15 7 25 14 18 14 17 16 -15 53
-64 73 -63 66 -18 118 38 44 40 49 25 64 -14 15 -18 13 -43 -19 -15 -19 -37
-46 -49 -60 l-22 -25 -1 58 c0 50 -2 57 -19 57 -11 0 -22 -4 -25 -8z"/>
<path d="M3211 3235 c-23 -68 -41 -127 -41 -130 0 -3 11 -5 24 -5 19 0 25 7
30 35 7 34 8 35 55 35 48 0 49 -1 55 -35 5 -24 12 -35 24 -35 39 0 38 14 -1
138 l-39 122 -33 0 -33 0 -41 -125z m93 8 c7 -32 6 -33 -24 -33 -29 0 -32 2
-26 25 3 13 11 37 17 52 10 26 12 26 19 8 4 -11 11 -35 14 -52z"/>
<path d="M3440 3230 c0 -122 1 -130 20 -130 17 0 19 8 22 88 l3 87 54 -87 c79
-130 95 -121 98 50 l1 122 -24 0 -24 0 7 -87 c8 -104 2 -103 -64 7 -37 62 -53
80 -70 80 -23 0 -23 -2 -23 -130z"/>
<path d="M3095 2739 c-60 -10 -124 -21 -141 -24 l-31 -5 -7 -418 c-6 -384 -18
-708 -31 -824 l-6 -48 119 0 118 0 0 473 c-1 270 3 478 8 487 7 10 39 -75 111
-290 l102 -305 49 -3 c27 -2 81 -1 120 3 l72 6 107 297 c59 163 111 303 115
311 12 23 25 -399 21 -696 l-3 -283 131 0 132 0 -6 58 c-23 234 -28 352 -34
774 -3 262 -8 479 -11 482 -3 3 -64 6 -135 8 l-129 3 -137 -359 c-76 -197
-140 -361 -144 -364 -3 -3 -9 -1 -14 4 -7 8 -161 472 -221 668 -12 36 -26 65
-33 65 -7 -1 -61 -10 -122 -20z"/>
<path d="M586 2398 c11 -440 11 -555 0 -790 l-8 -188 350 0 350 0 6 50 c3 28
9 73 12 100 l6 50 -231 0 -230 0 -5 33 c-3 17 -7 102 -8 187 l-3 155 186 3
186 2 9 100 9 100 -194 0 -194 0 7 61 c3 34 6 111 6 170 l0 109 219 0 218 0 9
101 c5 55 7 102 5 105 -2 2 -164 4 -359 4 l-355 0 9 -352z"/>
<path d="M1630 2728 c-58 -11 -106 -21 -108 -23 -2 -2 1 -194 8 -427 9 -315 9
-470 1 -607 -6 -102 -11 -199 -11 -218 l0 -33 314 0 314 0 5 33 c3 17 9 67 13
111 l7 78 -59 -6 c-148 -15 -326 -27 -330 -23 -15 14 -18 345 -7 657 17 517
19 480 -14 479 -16 -1 -75 -10 -133 -21z"/>
<path d="M2445 2728 c-60 -11 -111 -21 -111 -22 -1 0 4 -186 10 -411 11 -370
9 -545 -8 -797 l-5 -78 134 0 135 0 0 48 c0 26 -5 133 -11 237 -10 178 1 814
17 988 l5 57 -28 -1 c-15 -1 -77 -10 -138 -21z"/>
<path d="M2890 1033 c-105 -20 -166 -182 -108 -285 28 -50 63 -68 127 -68 42
0 56 5 87 32 48 42 64 83 64 160 0 114 -70 181 -170 161z m76 -88 c40 -44 39
-151 -2 -196 -25 -28 -75 -24 -104 6 -32 34 -41 141 -16 181 32 48 83 52 122
9z"/>
<path d="M3504 1021 c-115 -52 -147 -220 -59 -308 30 -30 38 -33 93 -33 33 0
74 3 91 6 l31 7 0 88 0 89 -60 0 c-57 0 -60 -1 -60 -24 0 -21 6 -25 33 -28 30
-3 32 -5 32 -43 0 -37 -2 -40 -29 -43 -54 -6 -76 6 -98 55 -26 59 -20 123 13
159 20 22 31 25 69 22 25 -3 53 -8 62 -12 12 -6 21 0 33 24 19 37 18 39 -32
51 -55 12 -73 11 -119 -10z"/>
<path d="M968 1005 c-5 -23 -3 -25 37 -25 l42 0 7 -64 c3 -35 3 -102 0 -150
l-7 -86 36 0 36 0 -6 149 -6 150 49 3 c42 3 49 6 52 26 3 22 2 22 -116 22
l-120 0 -4 -25z"/>
<path d="M1254 855 l1 -175 33 0 32 0 -2 68 c-3 61 -1 67 17 67 13 0 30 -19
53 -60 18 -33 37 -64 42 -68 6 -7 41 4 58 19 2 1 -15 29 -38 62 l-42 60 21 21
c49 49 51 124 4 161 -21 16 -40 20 -103 20 l-77 0 1 -175z m134 113 c21 -21
15 -75 -10 -92 -25 -18 -54 -21 -63 -6 -3 5 -3 32 1 60 6 46 9 50 33 50 15 0
32 -5 39 -12z"/>
<path d="M1550 855 l0 -175 90 0 c50 0 90 4 90 9 0 5 3 16 6 25 5 12 -6 16
-58 18 l-63 3 -3 48 -3 47 50 0 c50 0 51 1 51 30 0 29 -1 30 -50 30 -49 0 -50
1 -50 29 0 54 8 61 65 61 48 0 53 2 57 25 l5 25 -93 0 -94 0 0 -175z"/>
<path d="M1813 1023 c-10 -3 -13 -48 -13 -174 l0 -169 79 0 c63 0 80 3 85 16
15 38 8 43 -50 37 l-57 -6 5 151 c5 149 5 152 -16 151 -12 0 -27 -3 -33 -6z"/>
<path d="M2033 1023 c-10 -3 -13 -48 -13 -174 l0 -169 79 0 c63 0 80 3 85 16
15 38 8 43 -50 37 l-57 -6 5 151 c5 149 5 152 -16 151 -12 0 -27 -3 -33 -6z"/>
<path d="M2240 855 l0 -175 90 0 c50 0 90 4 90 9 0 5 3 16 6 25 5 12 -6 16
-58 18 l-63 3 -3 48 -3 47 50 0 c50 0 51 1 51 30 0 29 -1 30 -50 30 -49 0 -50
1 -50 29 0 54 8 61 65 61 48 0 53 2 57 25 l5 25 -93 0 -94 0 0 -175z"/>
<path d="M2491 855 l1 -175 80 0 c78 0 81 1 114 34 26 26 34 42 34 70 0 35
-27 76 -51 76 -6 0 -1 12 10 26 31 39 28 97 -5 123 -22 17 -41 21 -105 21
l-79 0 1 -175z m130 115 c23 -13 25 -53 3 -74 -8 -9 -29 -16 -45 -16 -28 0
-29 1 -29 50 0 47 2 50 26 50 14 0 34 -5 45 -10z m21 -157 c40 -36 10 -83 -53
-83 l-39 0 0 50 0 50 37 0 c20 0 45 -7 55 -17z"/>
<path d="M3125 855 l0 -175 33 0 33 0 -2 68 c-2 60 -1 67 16 67 13 0 31 -21
56 -63 20 -35 39 -65 42 -68 4 -5 43 11 56 22 2 2 -15 31 -39 65 -38 54 -41
63 -27 71 24 13 47 62 47 98 0 21 -9 41 -29 61 -28 27 -35 29 -108 29 l-78 0
0 -175z m139 103 c9 -12 16 -28 16 -36 0 -20 -47 -62 -70 -62 -18 0 -20 6 -20
60 0 60 0 60 29 60 20 0 35 -8 45 -22z"/>
</g>
</svg>
