<?xml version="1.0" encoding="UTF-8"?>
<svg version="1.1" xmlns="http://www.w3.org/2000/svg" width="1043" height="1044">
<path d="M0 0 C344.19 0 688.38 0 1043 0 C1043 344.52 1043 689.04 1043 1044 C698.81 1044 354.62 1044 0 1044 C0 699.48 0 354.96 0 0 Z " fill="#FEFEFE" transform="translate(0,0)"/>
<path d="M0 0 C344.19 0 688.38 0 1043 0 C1043 344.52 1043 689.04 1043 1044 C698.81 1044 354.62 1044 0 1044 C0 699.48 0 354.96 0 0 Z M493.875 6.4375 C492.6900293 6.47665527 491.50505859 6.51581055 490.28417969 6.55615234 C479.60924234 6.94713728 469.04849484 7.52776208 458.5234375 9.40625 C454.95351817 10.00783286 451.3799855 10.51519399 447.79370117 11.00708008 C393.33427985 18.51511666 340.02879161 34.47468995 291.16894531 59.87646484 C288.65834378 61.1769813 286.13763651 62.45695777 283.6171875 63.73828125 C253.40944549 79.18802302 225.41827928 97.72985584 199 119 C198.02417969 119.78117187 197.04835937 120.56234375 196.04296875 121.3671875 C190.661299 125.71768416 185.45394913 130.21723357 180.33984375 134.87890625 C178.21195185 136.80786335 176.05279141 138.69036353 173.875 140.5625 C170.41258101 143.57299683 167.19932233 146.77975926 163.984375 150.05078125 C162.13767964 151.86475957 160.23426324 153.52711444 158.25 155.1875 C152.89569275 159.7978624 148.26324747 165.08626002 143.53027344 170.31689453 C142.06482983 171.92869547 140.58646856 173.52722701 139.1015625 175.12109375 C133.13123997 181.53965739 127.47819707 188.15451739 122 195 C121.07759625 196.13083957 120.15437804 197.26101515 119.23046875 198.390625 C96.0880928 226.81149108 76.84735472 257.91229133 60.25146484 290.54833984 C59.20986627 292.58886517 58.15269433 294.61918874 57.08203125 296.64453125 C43.8765524 322.08311402 34.15354883 349.56733093 26 377 C25.66790527 378.1139917 25.66790527 378.1139917 25.32910156 379.25048828 C22.40795856 389.14848751 20.02066164 399.08948061 17.9921875 409.20703125 C17.26894978 412.80640924 16.43393321 416.36838241 15.57421875 419.9375 C13.63874476 428.29286129 12.23733685 436.71354379 10.9375 445.1875 C10.80615662 446.04239014 10.67481323 446.89728027 10.53948975 447.77807617 C7.47470177 468.11256734 6.46428911 488.45998903 6 509 C5.97212402 510.21623047 5.94424805 511.43246094 5.91552734 512.68554688 C5.80801549 518.47894986 5.81473292 524.26119715 5.93798828 530.05419922 C5.98203936 532.14679888 6.01580183 534.2396263 6.04248047 536.33251953 C6.41820692 564.46552175 9.27172094 592.44111412 15 620 C15.35336426 621.7629541 15.35336426 621.7629541 15.71386719 623.56152344 C19.64974807 643.12240695 24.68733042 662.04857146 31 681 C31.36351563 682.11068848 31.72703125 683.22137695 32.1015625 684.36572266 C40.44098126 709.78520097 51.07104373 734.0719899 63 758 C63.42104004 758.8461084 63.84208008 759.6922168 64.27587891 760.56396484 C82.78728984 797.46004729 107.15491127 832.44901302 135.0546875 862.87109375 C136.9306363 864.92408992 138.75007915 867.01592731 140.5625 869.125 C143.5693627 872.58323932 146.77182589 875.7930013 150.0390625 879.00390625 C151.91661121 880.91511619 153.64809414 882.89034635 155.375 884.9375 C158.81123298 888.93859319 162.64221551 892.36805801 166.59765625 895.84765625 C168.63195469 897.67025534 170.54434528 899.53420625 172.4375 901.5 C176.11343262 905.24512665 180.16937106 908.46743492 184.25390625 911.75390625 C186.6743574 913.73364937 189.00119141 915.77028882 191.3125 917.875 C237.2857666 959.0560003 297.50953647 993.05059032 356.74072266 1010.28613281 C359 1011 359 1011 362.43359375 1012.484375 C367.20183017 1014.51074491 372.07409796 1015.87049811 377.0625 1017.25 C378.14523193 1017.55010986 379.22796387 1017.85021973 380.34350586 1018.15942383 C406.39035717 1025.26815542 432.62445755 1030.97481106 459.515625 1033.60546875 C463 1034 463 1034 464.85009766 1034.49169922 C529.14382525 1049.6926464 616.77640084 1032.95639613 678 1013 C678.92458008 1012.69868164 679.84916016 1012.39736328 680.80175781 1012.08691406 C696.83481337 1006.80221316 712.44978473 1000.55834003 728 994 C728.87060059 993.63374512 729.74120117 993.26749023 730.63818359 992.89013672 C742.43427208 987.89146937 753.76959538 982.15840404 765 976 C765.92538574 975.49275391 766.85077148 974.98550781 767.80419922 974.46289062 C780.53398295 967.44987104 792.94246323 960.11368875 805 952 C805.77327637 951.484375 806.54655273 950.96875 807.34326172 950.4375 C817.27497467 943.80706054 826.94922058 936.97822142 836.21826172 929.44628906 C838.16073786 927.86952438 840.11321647 926.30565739 842.06640625 924.7421875 C848.81515026 919.32146532 855.4568098 913.836892 861.8359375 907.98046875 C863.89991208 906.09159671 866.00290254 904.2605374 868.125 902.4375 C871.58323932 899.4306373 874.7930013 896.22817411 878.00390625 892.9609375 C879.91511619 891.08338879 881.89034635 889.35190586 883.9375 887.625 C887.93859319 884.18876702 891.36805801 880.35778449 894.84765625 876.40234375 C896.67025534 874.36804531 898.53420625 872.45565472 900.5 870.5625 C904.24849565 866.88326062 907.47366717 862.82371647 910.76171875 858.734375 C912.69441974 856.37330922 914.6844615 854.11882708 916.75 851.875 C943.67090108 821.86219345 964.98745119 785.86048382 983 750 C983.42877441 749.15179687 983.85754883 748.30359375 984.29931641 747.4296875 C997.58618742 720.96999586 1007.38011311 693.26661061 1016 665 C1016.32475311 663.93853256 1016.32475311 663.93853256 1016.65606689 662.85562134 C1019.4818253 653.57778808 1022.01763193 644.31350895 1024 634.8125 C1024.24854736 633.63179932 1024.49709473 632.45109863 1024.75317383 631.23461914 C1031.48520534 598.63391478 1035.43663007 566.28107863 1036 533 C1036.03287109 531.52442627 1036.03287109 531.52442627 1036.06640625 530.01904297 C1036.21456497 523.00743148 1036.16069467 516.01111761 1036 509 C1035.98386658 508.28626221 1035.96773315 507.57252441 1035.95111084 506.8371582 C1035.46203755 486.2538343 1034.24909331 465.92746655 1031.125 445.5625 C1031.00211609 444.75917236 1030.87923218 443.95584473 1030.75262451 443.12817383 C1028.91776991 431.33037801 1026.56063523 419.65974313 1024 408 C1023.83921463 407.26641769 1023.67842926 406.53283539 1023.51277161 405.77702332 C1016.77231651 375.1603121 1006.5730691 345.29920699 994.10791016 316.5625 C993.11096209 314.25664569 992.13492749 311.94354619 991.16796875 309.625 C986.73281036 299.08604787 981.45255797 289.04331346 976 279 C975.39865234 277.88238281 975.39865234 277.88238281 974.78515625 276.7421875 C964.95167405 258.49382382 954.06213807 240.86057985 942 224 C941.46793945 223.25540527 940.93587891 222.51081055 940.38769531 221.74365234 C929.98650059 207.25820314 919.00436933 193.27817301 906.9453125 180.12890625 C905.0693637 178.07591008 903.24992085 175.98407269 901.4375 173.875 C898.4306373 170.41676068 895.22817411 167.2069987 891.9609375 163.99609375 C890.08338879 162.08488381 888.35190586 160.10965365 886.625 158.0625 C883.18876702 154.06140681 879.35778449 150.63194199 875.40234375 147.15234375 C873.36804531 145.32974466 871.45565472 143.46579375 869.5625 141.5 C865.88656738 137.75487335 861.83062894 134.53256508 857.74609375 131.24609375 C855.3256426 129.26635063 852.99880859 127.22971118 850.6875 125.125 C806.06112423 85.15049026 750.63964395 56.39547717 694.69921875 35.98730469 C692.35739626 35.13072635 690.02172119 34.25981275 687.6875 33.3828125 C626.05283924 10.54730327 559.1372749 4.27986288 493.875 6.4375 Z " fill="#FEFEFE" transform="translate(0,0)"/>
<path d="M0 0 C38.94 0 77.88 0 118 0 C118 18.37606319 118 18.37606319 117.48095703 25.81054688 C117.42564819 26.66546722 117.37033936 27.52038757 117.31335449 28.4012146 C117.13289116 31.17405934 116.9452966 33.94637199 116.7578125 36.71875 C116.62754195 38.7075249 116.49782471 40.69633611 116.36862183 42.68518066 C116.0284981 47.90438672 115.68275787 53.12320288 115.33520508 58.34191895 C114.71950372 67.5920988 114.11105441 76.84274971 113.5078125 86.09375 C113.44184372 87.10252827 113.37587494 88.11130653 113.3079071 89.15065384 C112.33532286 104.07796187 111.50905273 119.00738315 110.79339218 133.94906235 C110.17827029 146.78382672 109.41155158 159.59783666 108.48181152 172.41415405 C106.28656215 202.82078545 104.52702068 233.25416579 102.75 263.6875 C102.68154373 264.85936104 102.61308746 266.03122208 102.54255676 267.23859406 C101.69067562 281.825477 100.84312851 296.4126086 100 311 C81.14902167 312.10555222 62.29969978 313.20858606 43.43261719 314.00537109 C40.56941392 314.12736845 37.706612 314.25698326 34.84375 314.38671875 C32.92970704 314.46920458 31.01564514 314.55125242 29.1015625 314.6328125 C27.88673691 314.68902267 27.88673691 314.68902267 26.64736938 314.74636841 C16.75344835 315.1484623 6.92769719 315 -3 315 C-3 264.51 -3 214.02 -3 162 C-6.444375 174.354375 -9.88875 186.70875 -13.4375 199.4375 C-14.50411865 203.26142334 -15.5707373 207.08534668 -16.66967773 211.02514648 C-17.5495866 214.18205405 -18.42931828 217.33900983 -19.30859375 220.49609375 C-19.54277952 221.3367935 -19.77696529 222.17749325 -20.0182476 223.04366875 C-23.76968494 236.5165431 -27.47556948 250.00132584 -31.12461853 263.50230408 C-31.46127029 264.74428055 -31.79792206 265.98625702 -32.14477539 267.26586914 C-32.43252335 268.33148575 -32.7202713 269.39710236 -33.01673889 270.49501038 C-34.28444543 275.0139507 -35.65136456 279.50454852 -37 284 C-51.19 284 -65.38 284 -80 284 C-81.8219126 277.31965378 -83.57080706 270.76057153 -84.98046875 264.00390625 C-85.15434113 263.18458115 -85.3282135 262.36525604 -85.50735474 261.52110291 C-85.87815995 259.77296981 -86.24764063 258.02455529 -86.61587524 256.27587891 C-87.59866933 251.61076826 -88.59242127 246.94799326 -89.5859375 242.28515625 C-89.78719742 241.33980011 -89.98845734 240.39444397 -90.19581604 239.42044067 C-92.1836123 230.10221226 -94.23701795 220.79904145 -96.3125 211.5 C-96.4710849 210.78925323 -96.6296698 210.07850647 -96.7930603 209.34622192 C-97.86060829 204.56382718 -98.93047312 199.78195318 -100 195 C-101.32 189.06 -102.64 183.12 -104 177 C-104.33 218.58 -104.66 260.16 -105 303 C-136.0625 303.9375 -136.0625 303.9375 -145.71118164 304.22631836 C-148.31918593 304.30540755 -150.92717799 304.38490084 -153.53515625 304.46484375 C-154.22935228 304.48604719 -154.92354832 304.50725063 -155.63878059 304.5290966 C-165.55499019 304.83402126 -175.46408234 305.22878106 -185.3740387 305.6962738 C-193.25398305 306.05035325 -201.11300256 306.10302319 -209 306 C-209.02597236 300.18538703 -209.04341108 294.37081192 -209.05493164 288.55615234 C-209.05976441 286.60464896 -209.06641582 284.65314866 -209.07543945 282.70166016 C-209.13704432 268.96739817 -208.93865804 255.24898133 -208.62460136 241.51926994 C-208.08683065 217.97118441 -207.76833205 194.42348808 -207.5 170.87109375 C-207.47926455 169.06375235 -207.45851701 167.2564111 -207.43775749 165.44906998 C-207.26693977 150.54796059 -207.10099758 135.64679687 -206.9375 120.74560547 C-206.82463302 110.46139799 -206.71026735 100.17721183 -206.59148407 89.89307076 C-206.54096623 85.508138 -206.49164428 81.12320004 -206.44555664 76.73821831 C-206.22167204 55.47995802 -205.7937161 34.24520116 -205 13 C-199.92404792 12.3199123 -194.92788004 11.8289949 -189.80664062 11.61108398 C-188.79934402 11.56697388 -188.79934402 11.56697388 -187.771698 11.52197266 C-185.56668281 11.42647913 -183.36150035 11.33598179 -181.15625 11.24609375 C-179.58524157 11.18036251 -178.01423742 11.11452883 -176.4432373 11.04859924 C-173.14161361 10.91095369 -169.83989043 10.77605666 -166.53808594 10.64282227 C-163.22212277 10.50868369 -159.90640169 10.37006944 -156.59082031 10.22680664 C-134.71314889 9.28222298 -112.89880653 8.78528047 -91 9 C-89.97913795 12.38740588 -88.95829188 15.77481655 -87.93756104 19.16226196 C-87.35020166 21.11093271 -86.76264542 23.05954427 -86.17425537 25.00790405 C-83.59796675 33.539269 -81.10709928 42.09149815 -78.67082214 50.66377258 C-76.26867124 59.09726859 -73.81773586 67.51628428 -71.36373138 75.93479729 C-69.8920669 80.98511023 -68.42341145 86.03629941 -66.95432663 91.08736324 C-65.68696102 95.44385171 -64.41781285 99.79980778 -63.14526367 104.15478516 C-61.89577924 108.43123633 -60.65095036 112.70901815 -59.40925026 116.98773575 C-58.94009039 118.60127789 -58.46925349 120.21433345 -57.99664879 121.82686996 C-57.33928421 124.07065613 -56.68790106 126.31609997 -56.0378418 128.56201172 C-55.84514709 129.21450897 -55.65245239 129.86700623 -55.45391846 130.53927612 C-54.2600257 134.69371053 -53.52516447 138.72251484 -53 143 C-52.34 143 -51.68 143 -51 143 C-50.79632812 141.86175781 -50.59265625 140.72351563 -50.3828125 139.55078125 C-48.84891137 132.68557334 -46.25338328 126.17291948 -43.78311157 119.60321045 C-42.52087212 116.24546771 -41.27215116 112.88274407 -40.02259827 109.52026367 C-39.35877462 107.73406485 -38.69432549 105.94809837 -38.02928162 104.16235352 C-34.40329722 94.4192304 -30.85867013 84.64754352 -27.3125 74.875 C-18.23889793 49.90553867 -9.1175992 24.95342939 0 0 Z " fill="#262626" transform="translate(814,337)"/>
<path d="M0 0 C65.34 0 130.68 0 198 0 C198 26.42739141 198 26.42739141 197.37890625 34.78125 C197.28258156 36.21059875 197.28258156 36.21059875 197.18431091 37.66882324 C196.98429145 40.61310486 196.77376372 43.55650646 196.5625 46.5 C196.42571166 48.48432546 196.28964295 50.46870065 196.15429688 52.453125 C195.8950013 56.24390111 195.62979931 60.03418648 195.35986328 63.82421875 C195.12695771 67.11763606 194.91010481 70.4111995 194.71435547 73.70703125 C194.67148911 74.41307495 194.62862274 75.11911865 194.5844574 75.84655762 C194.4733609 77.70153897 194.36721218 79.55681484 194.26147461 81.41210938 C194 84 194 84 193 85 C190.29490494 85.21503345 187.61017799 85.36759062 184.90014648 85.48071289 C184.05143982 85.5198732 183.20273315 85.55903351 182.32830811 85.59938049 C179.50942086 85.7283173 176.69028222 85.85049771 173.87109375 85.97265625 C171.92194277 86.060494 169.97281062 86.14875079 168.0236969 86.2374115 C162.88312588 86.47010966 157.74231746 86.69708982 152.60144043 86.9229126 C147.35979056 87.15416483 142.11838312 87.39077906 136.87695312 87.62695312 C126.5848666 88.08990775 116.29252153 88.54682697 106 89 C105.93941406 90.04800781 105.87882812 91.09601563 105.81640625 92.17578125 C105.73198262 93.55470048 105.64733553 94.93360605 105.5625 96.3125 C105.52318359 97.00279297 105.48386719 97.69308594 105.44335938 98.40429688 C105.25072585 101.47161535 104.97677283 104.06968152 104 107 C124.46 107 144.92 107 166 107 C165.3363784 117.33353627 164.67092212 127.66693734 164 138 C163.95425842 138.70499634 163.90851685 139.40999268 163.86138916 140.13635254 C163.55590422 144.84106681 163.24733714 149.54557032 162.9375 154.25 C162.85838379 155.4663916 162.77926758 156.6827832 162.69775391 157.93603516 C162.23206263 164.96826636 161.67781198 171.98495775 161 179 C140.40171202 180.54651683 119.65565398 181.29696627 99 181 C98.93941406 182.25296875 98.87882812 183.5059375 98.81640625 184.796875 C98.73197744 186.44792724 98.64733061 188.09896835 98.5625 189.75 C98.52318359 190.575 98.48386719 191.4 98.44335938 192.25 C98.40146484 193.04921875 98.35957031 193.8484375 98.31640625 194.671875 C98.27974854 195.4050293 98.24309082 196.13818359 98.20532227 196.89355469 C98 199 98 199 97 203 C125.71 203 154.42 203 184 203 C184 227.10297969 184 227.10297969 183.37890625 236.80078125 C183.28258156 238.43541573 183.28258156 238.43541573 183.18431091 240.10307312 C182.98284085 243.50659393 182.77321638 246.9095404 182.5625 250.3125 C182.28991234 254.80841364 182.02097786 259.30453676 181.75390625 263.80078125 C181.68877838 264.89021027 181.62365051 265.97963928 181.55654907 267.1020813 C180.89422221 278.39539913 180.42560368 289.69557467 180 301 C139.83595857 302.09416812 99.67073255 303.13068038 59.50247192 304.05820465 C56.64819562 304.12446156 53.79394388 304.19169383 50.93969727 304.25921631 C13.91916703 305.13304969 13.91916703 305.13304969 -1.96512985 305.02695084 C-2.72217107 305.02193188 -3.47921228 305.01691292 -4.25919414 305.01174188 C-4.83366007 305.00786706 -5.40812601 305.00399224 -6 305 C-6.16983019 274.52570524 -5.71721544 244.08520677 -5.0232861 213.61936569 C-4.88304475 207.4202247 -4.74801795 201.22096965 -4.61228943 195.02172852 C-4.38415615 184.63437031 -4.15265516 174.24709195 -3.91870117 163.85986328 C-3.62088503 150.63667792 -3.32849456 137.41337852 -3.03788853 124.19003296 C-2.78460702 112.66591806 -2.52909508 101.14185276 -2.27310061 89.61779785 C-2.19247214 85.98551796 -2.11208388 82.3532328 -2.03170967 78.72094727 C-1.90410273 72.9616928 -1.7750939 67.20247113 -1.6451149 61.44326973 C-1.59836308 59.36442525 -1.5519891 57.28557222 -1.50608253 55.20670891 C-1.09907788 36.8009091 -0.54127434 18.40332769 0 0 Z " fill="#262626" transform="translate(91,341)"/>
<path d="M0 0 C1.38759521 0.01885254 1.38759521 0.01885254 2.80322266 0.03808594 C55.64323093 0.92798468 111.47147865 9.5837107 160.69921875 29.10302734 C163.40331823 30.15723591 166.12252257 31.16661597 168.84375 32.17578125 C184.59634706 38.05633529 199.84518219 44.72404098 215 52 C215.93763184 52.44424316 216.87526367 52.88848633 217.84130859 53.34619141 C239.11643855 63.45349363 259.75241415 75.40742067 279 89 C280.05574219 89.7434668 280.05574219 89.7434668 281.1328125 90.50195312 C291.32471798 97.70808561 301.27802386 105.17254721 311 113 C312.46373047 114.17175781 312.46373047 114.17175781 313.95703125 115.3671875 C319.338701 119.71768416 324.54605087 124.21723357 329.66015625 128.87890625 C331.78804815 130.80786335 333.94720859 132.69036353 336.125 134.5625 C339.58323932 137.5693627 342.7930013 140.77182589 346.00390625 144.0390625 C347.91511619 145.91661121 349.89034635 147.64809414 351.9375 149.375 C355.93859319 152.81123298 359.36805801 156.64221551 362.84765625 160.59765625 C364.67025534 162.63195469 366.53420625 164.54434528 368.5 166.4375 C372.24849565 170.11673938 375.47366717 174.17628353 378.76171875 178.265625 C380.69441974 180.62669078 382.6844615 182.88117292 384.75 185.125 C411.07217308 214.47031375 431.96216552 249.57119631 449.74853516 284.54833984 C450.79013373 286.58886517 451.84730567 288.61918874 452.91796875 290.64453125 C466.1234476 316.08311402 475.84645117 343.56733093 484 371 C484.22139648 371.74266113 484.44279297 372.48532227 484.67089844 373.25048828 C487.59204144 383.14848751 489.97933836 393.08948061 492.0078125 403.20703125 C492.73105022 406.80640924 493.56606679 410.36838241 494.42578125 413.9375 C496.36125524 422.29286129 497.76266315 430.71354379 499.0625 439.1875 C499.25951508 440.46983521 499.25951508 440.46983521 499.46051025 441.77807617 C502.52529823 462.11256734 503.53571089 482.45998903 504 503 C504.02787598 504.21623047 504.05575195 505.43246094 504.08447266 506.68554688 C504.19198451 512.47894986 504.18526708 518.26119715 504.06201172 524.05419922 C504.01796064 526.14679888 503.98419817 528.2396263 503.95751953 530.33251953 C503.55383791 560.55870142 500.0427688 590.38427578 494 620 C493.78118164 621.07475586 493.56236328 622.14951172 493.33691406 623.25683594 C489.67630474 640.85857566 484.60872362 657.92925585 479 675 C478.63503418 676.11938965 478.27006836 677.2387793 477.89404297 678.39208984 C469.55437922 703.80124079 458.92454507 728.08083821 447 752 C446.36843994 753.2691626 446.36843994 753.2691626 445.72412109 754.56396484 C427.21271016 791.46004729 402.84508873 826.44901302 374.9453125 856.87109375 C373.0693637 858.92408992 371.24992085 861.01592731 369.4375 863.125 C366.4306373 866.58323932 363.22817411 869.7930013 359.9609375 873.00390625 C358.08338879 874.91511619 356.35190586 876.89034635 354.625 878.9375 C351.18876702 882.93859319 347.35778449 886.36805801 343.40234375 889.84765625 C341.36804531 891.67025534 339.45565472 893.53420625 337.5625 895.5 C333.88656738 899.24512665 329.83062894 902.46743492 325.74609375 905.75390625 C323.3256426 907.73364937 320.99880859 909.77028882 318.6875 911.875 C292.99172719 934.89223819 262.99757803 953.24804128 233 970 C232.17113281 970.46744629 231.34226562 970.93489258 230.48828125 971.41650391 C208.96083534 983.49142741 185.73957723 992.73353607 162.55419922 1001.07714844 C160.27045636 1001.90228206 157.99559966 1002.74725115 155.72265625 1003.6015625 C94.12934395 1026.45675352 27.110476 1032.72173173 -38.125 1030.5625 C-39.30980957 1030.52334473 -40.49461914 1030.48418945 -41.71533203 1030.44384766 C-52.39043075 1030.05291167 -62.95134909 1029.47226578 -73.4765625 1027.59375 C-77.04648183 1026.99216714 -80.6200145 1026.48480601 -84.20629883 1025.99291992 C-115.75940139 1021.64285812 -148.05755961 1015.19749597 -177.90478516 1003.78833008 C-180.16351489 1002.93847709 -182.43602282 1002.13810674 -184.71484375 1001.34375 C-203.96948491 994.57890586 -222.71923848 986.53969818 -240.83105469 977.12353516 C-243.34165622 975.8230187 -245.86236349 974.54304223 -248.3828125 973.26171875 C-278.59055451 957.81197698 -306.58172072 939.27014416 -333 918 C-333.97582031 917.21882812 -334.95164062 916.43765625 -335.95703125 915.6328125 C-341.338701 911.28231584 -346.54605087 906.78276643 -351.66015625 902.12109375 C-353.78804815 900.19213665 -355.94720859 898.30963647 -358.125 896.4375 C-361.58323932 893.4306373 -364.7930013 890.22817411 -368.00390625 886.9609375 C-369.91511619 885.08338879 -371.89034635 883.35190586 -373.9375 881.625 C-377.93859319 878.18876702 -381.36805801 874.35778449 -384.84765625 870.40234375 C-386.67025534 868.36804531 -388.53420625 866.45565472 -390.5 864.5625 C-394.24849565 860.88326062 -397.47366717 856.82371647 -400.76171875 852.734375 C-402.69441974 850.37330922 -404.6844615 848.11882708 -406.75 845.875 C-433.67090108 815.86219345 -454.98745119 779.86048382 -473 744 C-473.42877441 743.15179687 -473.85754883 742.30359375 -474.29931641 741.4296875 C-487.58618742 714.96999586 -497.38011311 687.26661061 -506 659 C-506.32475311 657.93853256 -506.32475311 657.93853256 -506.65606689 656.85562134 C-509.4818253 647.57778808 -512.01763193 638.31350895 -514 628.8125 C-514.24854736 627.63179932 -514.49709473 626.45109863 -514.75317383 625.23461914 C-521.48520534 592.63391478 -525.43663007 560.28107863 -526 527 C-526.02191406 526.01628418 -526.04382813 525.03256836 -526.06640625 524.01904297 C-526.21456497 517.00743148 -526.16069467 510.01111761 -526 503 C-525.98386658 502.28626221 -525.96773315 501.57252441 -525.95111084 500.8371582 C-525.46203755 480.2538343 -524.24909331 459.92746655 -521.125 439.5625 C-521.00211609 438.75917236 -520.87923218 437.95584473 -520.75262451 437.12817383 C-518.91776991 425.33037801 -516.56063523 413.65974313 -514 402 C-513.83921463 401.26641769 -513.67842926 400.53283539 -513.51277161 399.77702332 C-506.77231651 369.1603121 -496.5730691 339.29920699 -484.10791016 310.5625 C-483.11096209 308.25664569 -482.13492749 305.94354619 -481.16796875 303.625 C-476.73281036 293.08604787 -471.45255797 283.04331346 -466 273 C-465.59910156 272.25492187 -465.19820312 271.50984375 -464.78515625 270.7421875 C-454.95167405 252.49382382 -444.06213807 234.86057985 -432 218 C-431.20190918 216.88310791 -431.20190918 216.88310791 -430.38769531 215.74365234 C-420.05435052 201.35269582 -409.16694623 187.41337692 -397.16015625 174.37109375 C-395.32430391 172.35597192 -393.5296856 170.31556961 -391.7421875 168.2578125 C-387.93733703 163.89991669 -384.02111389 159.65569513 -380.0625 155.4375 C-379.39798828 154.72142578 -378.73347656 154.00535156 -378.04882812 153.26757812 C-374.13225607 149.09268706 -370.08317717 145.22527618 -365.73461914 141.50317383 C-363.77576725 139.80568599 -361.97118615 138.00476292 -360.1875 136.125 C-356.27916744 132.15536027 -352.05173028 128.69546431 -347.7109375 125.2109375 C-345.30014145 123.24478395 -342.986744 121.21910699 -340.6875 119.125 C-295.63776535 78.77126243 -239.37927645 49.28999139 -182.80029297 29.01025391 C-180.54705378 28.19735907 -178.30397333 27.36641698 -176.06640625 26.51171875 C-143.20468755 14.16343522 -107.37018997 6.80727402 -72.484375 3.39453125 C-69.24780443 3.11421845 -69.24780443 3.11421845 -67.14990234 2.50830078 C-57.87950571 0.31650362 -47.61080075 0.75094161 -38.125 0.4375 C-36.86268555 0.3957666 -35.60037109 0.3540332 -34.29980469 0.31103516 C-22.86099016 -0.04254919 -11.44276707 -0.1870969 0 0 Z M-110.53222656 22.46582031 C-113.19126155 23.0414009 -115.85623348 23.58079237 -118.5234375 24.1171875 C-132.30554557 26.93170315 -145.62459843 30.66602753 -159 35 C-160.29609845 35.41510564 -161.59232879 35.82979961 -162.88867188 36.24414062 C-179.11022201 41.43939012 -195.09778547 46.81507849 -210.60693359 53.91162109 C-213.07775027 55.03536122 -215.56178168 56.12421374 -218.05078125 57.20703125 C-244.59248756 68.81711443 -270.32270324 83.27917398 -294 100 C-294.70382812 100.49564453 -295.40765625 100.99128906 -296.1328125 101.50195312 C-309.73725377 111.12090086 -322.905641 121.19502797 -335.54736328 132.04956055 C-337.74525549 133.9330527 -339.95409809 135.8017779 -342.17651367 137.65625 C-350.49006998 144.63003482 -358.30661303 151.99347132 -365.9519043 159.69116211 C-367.82183141 161.57188528 -369.70232638 163.44156819 -371.58398438 165.31054688 C-377.78713725 171.50728449 -383.69101299 177.7499766 -389.11499023 184.6496582 C-391.06292071 187.07845327 -393.1230897 189.35230895 -395.25 191.625 C-419.02925523 217.79869412 -437.94819604 248.9739662 -454.84179688 279.89648438 C-455.86129595 281.74808725 -456.90532912 283.58613662 -457.953125 285.421875 C-485.26130128 334.30121573 -500.69195982 390.95943964 -508.8125 446 C-508.9177298 446.7083902 -509.02295959 447.4167804 -509.13137817 448.14663696 C-518.41888025 511.24888434 -512.92207225 577.28386282 -498 639 C-497.70802734 640.23564697 -497.41605469 641.47129395 -497.11523438 642.74438477 C-494.72345335 652.72718402 -491.76835481 662.45894914 -488.5 672.1875 C-488.24055603 672.9628006 -487.98111206 673.7381012 -487.71380615 674.53689575 C-473.66824654 716.33509526 -454.32491961 756.22044977 -430 793 C-429.43603516 793.85287598 -428.87207031 794.70575195 -428.29101562 795.58447266 C-421.30158814 806.09499674 -413.96900814 816.21316943 -406 826 C-404.88044922 827.3921875 -404.88044922 827.3921875 -403.73828125 828.8125 C-399.60671075 833.91576841 -395.38393466 838.94042337 -391.125 843.9375 C-390.45706421 844.72447266 -390.45706421 844.72447266 -389.77563477 845.52734375 C-381.41873489 855.27730441 -372.59881639 864.58794587 -363.52050781 873.66479492 C-361.99513287 875.19237416 -360.47799328 876.72783582 -358.9609375 878.26367188 C-353.37557992 883.88006734 -347.65917487 889.10936535 -341.43603516 894.03149414 C-338.98399772 896.01293108 -336.6764447 898.09657244 -334.375 900.25 C-327.31331487 906.66566346 -319.64935036 912.31189507 -312 918 C-311.27216309 918.54205078 -310.54432617 919.08410156 -309.79443359 919.64257812 C-290.07675695 934.2625998 -269.41786851 947.02322241 -248 959 C-247.15083008 959.47566406 -246.30166016 959.95132813 -245.42675781 960.44140625 C-222.978089 972.90772047 -199.18946703 982.49616964 -175 991 C-174.14583496 991.30131836 -173.29166992 991.60263672 -172.41162109 991.91308594 C-167.30243222 993.70146003 -162.16785458 995.38937508 -157 997 C-156.24783203 997.23638184 -155.49566406 997.47276367 -154.72070312 997.71630859 C-128.76979013 1005.77096542 -101.29763623 1011.81588262 -74.23901367 1014.35473633 C-68.3654524 1014.90771155 -68.3654524 1014.90771155 -65.98724365 1015.50828552 C-62.61899521 1016.34170951 -59.1568958 1016.36378091 -55.703125 1016.53515625 C-54.47835197 1016.59989388 -54.47835197 1016.59989388 -53.22883606 1016.66593933 C-50.56947867 1016.80391395 -47.90985051 1016.93439755 -45.25 1017.0625 C-44.33797821 1017.10669067 -43.42595642 1017.15088135 -42.48629761 1017.19641113 C-28.30978546 1017.87365636 -14.19308404 1018.42529799 0 1018 C0.70259949 1017.9804425 1.40519897 1017.96088501 2.12908936 1017.94073486 C26.73269757 1017.24517362 50.7565345 1015.26860814 75 1011 C76.21300781 1010.78939941 77.42601562 1010.57879883 78.67578125 1010.36181641 C161.33614129 995.81423099 244.48141529 958.75416401 308.1015625 903.5 C310.81213825 901.16203709 313.57696791 898.91936138 316.375 896.6875 C327.31144741 887.74092196 337.33419929 877.76506247 347.35510254 867.82012939 C348.35121585 866.83205635 349.34880485 865.84546828 350.34802246 864.86053467 C356.28407925 859.00050397 361.82523142 852.99962865 367.00732422 846.46020508 C368.99854053 844.0018019 371.08908751 841.68464244 373.25 839.375 C430.62924484 776.21798398 467.89465571 690.27129451 483 607 C483.18014648 606.04561035 483.36029297 605.0912207 483.54589844 604.10791016 C492.57709593 556.11844571 494.43921742 504.38992756 488 456 C487.7841626 454.27692627 487.7841626 454.27692627 487.56396484 452.51904297 C483.30871848 418.92253653 475.91242281 386.07471082 465 354 C464.49170654 352.50364014 464.49170654 352.50364014 463.97314453 350.97705078 C459.29738197 337.37421006 453.87051879 324.12786131 448 311 C447.70270996 310.33484375 447.40541992 309.6696875 447.09912109 308.984375 C445.1348126 304.62280839 443.08307224 300.30569009 441 296 C440.61650391 295.20045898 440.23300781 294.40091797 439.83789062 293.57714844 C421.92447266 256.37556183 398.83896813 221.76833912 371.95043945 190.45263672 C370.0669473 188.25474451 368.1982221 186.04590191 366.34375 183.82348633 C359.36996518 175.50993002 352.00652868 167.69338697 344.30883789 160.0480957 C342.42811472 158.17816859 340.55843181 156.29767362 338.68945312 154.41601562 C332.49271551 148.21286275 326.2500234 142.30898701 319.3503418 136.88500977 C316.92154673 134.93707929 314.64769105 132.8769103 312.375 130.75 C305.31331487 124.33433654 297.64935036 118.68810493 290 113 C289.27216309 112.45794922 288.54432617 111.91589844 287.79443359 111.35742188 C254.37403605 86.57727433 217.85677853 65.09116475 179 50 C178.11812012 49.65308105 177.23624023 49.30616211 176.32763672 48.94873047 C160.10791361 42.59677476 143.62492227 37.18394173 127 32 C125.91122559 31.65316162 124.82245117 31.30632324 123.70068359 30.94897461 C85.45745899 18.89237569 43.989188 13.92836899 4.02252197 13.04498291 C2.15729772 13.00349846 0.29225579 12.95402137 -1.57275391 12.90380859 C-37.98504428 12.01463956 -74.93477146 14.64171987 -110.53222656 22.46582031 Z " fill="#2A2A2A" transform="translate(532,6)"/>
<path d="M0 0 C38.28 0 76.56 0 116 0 C113.69867505 27.61589934 113.69867505 27.61589934 112.8515625 36.3125 C112.70567436 37.82784836 112.70567436 37.82784836 112.55683899 39.37380981 C112.35230358 41.49538828 112.14706904 43.61689946 111.94113159 45.73834229 C111.61266658 49.12724892 111.28769986 52.5164795 110.96313477 55.90576172 C110.00039579 65.92461359 109.0254967 75.94047527 107.92578125 85.9453125 C106.21561849 101.66104737 104.8579258 117.37066749 103.86328125 133.1484375 C103.82018515 133.83202961 103.77708904 134.51562172 103.732687 135.21992874 C102.75722684 150.80938916 101.89474661 166.40584479 101 182 C128.39 182 155.78 182 184 182 C182.8553125 195.2103125 182.8553125 195.2103125 181.6875 208.6875 C179.81063574 230.31411586 179.81063574 230.31411586 178.03515625 251.94921875 C177.96580368 252.81989487 177.89645111 253.69057098 177.82499695 254.58763123 C177.51163024 258.53548009 177.20312464 262.48363898 176.90112305 266.43237305 C176.79351085 267.80648208 176.68584835 269.18058718 176.578125 270.5546875 C176.48950195 271.71468262 176.40087891 272.87467773 176.30957031 274.06982422 C176.05294146 276.49889324 175.62150066 278.6507275 175 281 C174.16327177 281.06404463 174.16327177 281.06404463 173.30963993 281.12938309 C159.46434452 282.18921307 145.61915824 283.25045973 131.77407932 284.31311417 C125.07754416 284.82706357 118.38097599 285.34057335 111.68432617 285.85302734 C105.20586064 286.34882302 98.72747529 286.84565325 92.24915695 287.34336853 C89.66639391 287.54173889 87.08361237 287.7398687 84.50081253 287.9377594 C70.91209065 288.97974738 57.32603626 290.04403044 43.74560547 291.18945312 C42.62010631 291.28383038 41.49460714 291.37820763 40.33500195 291.47544479 C35.09210995 291.91541355 29.84986747 292.36121303 24.60853577 292.81939697 C14.37081478 293.69520701 4.27817386 294.24399447 -6 294 C-6.18876397 252.61702994 -5.79265985 211.27729207 -4.83873993 169.9056142 C-4.71860286 164.69237646 -4.60189661 159.47907025 -4.48690796 154.26571655 C-3.81117812 123.6844599 -3.08082662 93.10545994 -2.1328125 62.53125 C-2.10092709 61.50281479 -2.06904167 60.47437958 -2.03619003 59.41477966 C-1.41661525 39.60778038 -0.69664023 19.80448651 0 0 Z " fill="#262626" transform="translate(294,339)"/>
<path d="M0 0 C0.14189753 7.99044512 -0.28451586 15.83585715 -0.98828125 23.79296875 C-1.14407906 25.62496574 -1.14407906 25.62496574 -1.30302429 27.49397278 C-1.63515404 31.39220364 -1.97339625 35.28987015 -2.3125 39.1875 C-2.7489228 44.24324995 -3.18240377 49.2992432 -3.61328125 54.35546875 C-3.66956318 55.01532713 -3.72584511 55.67518551 -3.78383255 56.3550396 C-4.69970023 67.12249258 -5.52908894 77.89489976 -6.32421875 88.671875 C-7.67974631 107.02753931 -9.12844713 125.37549497 -10.59375 143.72265625 C-10.65205293 144.45293525 -10.71035587 145.18321426 -10.77042556 145.93562293 C-11.55575537 155.77214767 -12.3427426 165.60853945 -13.13031006 175.44488525 C-14.04616993 186.88373799 -14.96105272 198.32266882 -15.87485981 209.76168573 C-16.16850963 213.4371192 -16.4624371 217.11253006 -16.75698853 220.78789139 C-17.85660424 234.50879245 -18.95331976 248.22968441 -19.9765625 261.95654297 C-20.04787132 262.90828494 -20.11918015 263.86002691 -20.19264984 264.84060955 C-20.50980615 269.07895715 -20.822522 273.31752298 -21.12561035 277.55690002 C-21.23007258 278.96950385 -21.33467563 280.38209726 -21.43945312 281.79467773 C-21.5248938 282.98455795 -21.61033447 284.17443817 -21.69836426 285.40037537 C-22 288 -22 288 -23 289 C-25.41337621 289.20938143 -27.80402196 289.35667805 -30.22265625 289.46484375 C-31.3565126 289.52124275 -31.3565126 289.52124275 -32.51327515 289.57878113 C-35.02948535 289.70288063 -37.54596132 289.82026508 -40.0625 289.9375 C-41.81585672 290.02220797 -43.56919312 290.10733754 -45.32250977 290.19287109 C-48.06446227 290.3263955 -50.80643514 290.45935483 -53.54850769 290.59039307 C-60.00996052 290.89950691 -66.46996134 291.23105345 -72.9296875 291.57421875 C-75.57915526 291.7132378 -78.22864442 291.85184045 -80.87814331 291.99026489 C-82.55897569 292.07875085 -84.23974451 292.16845438 -85.92044067 292.25949097 C-88.29963583 292.38788171 -90.67906116 292.5108559 -93.05859375 292.6328125 C-93.72724457 292.67021042 -94.39589539 292.70760834 -95.08480835 292.74613953 C-102.74018092 293.12784042 -110.30166885 293 -118 293 C-118 197.96 -118 102.92 -118 5 C-103.48 4.34 -88.96 3.68 -74 3 C-63.6018082 2.41562108 -53.20544789 1.82126663 -42.8112793 1.171875 C-28.51838408 0.28516343 -14.32100001 -0.186464 0 0 Z " fill="#262626" transform="translate(599,348)"/>
<path d="M0 0 C31.35 0 62.7 0 95 0 C94.38066297 13.00607758 93.68530127 25.87305306 92.4375 38.8125 C92.29708752 40.30659948 92.15711323 41.8007402 92.01757812 43.29492188 C91.68416037 46.86387289 91.34197755 50.43181911 91 54 C99.58 54 108.16 54 117 54 C116.98839844 51.10734375 116.97679687 48.2146875 116.96484375 45.234375 C116.9570176 42.39453236 116.95096114 39.55469098 116.94506836 36.71484375 C116.94007762 34.75976004 116.93328266 32.80468 116.92456055 30.84960938 C116.91226211 28.019522 116.90671899 25.18948447 116.90234375 22.359375 C116.89718246 21.50261169 116.89202118 20.64584839 116.88670349 19.76312256 C116.88610195 13.07349535 117.43886756 6.73358934 118 0 C129.22 0 140.44 0 152 0 C152 7.12978184 151.84184168 13.7949886 151.0625 20.8125 C149.91472763 31.86815925 149.42993579 42.89332534 149 54 C156.92 54 164.84 54 173 54 C173 65.25 173 65.25 172.5625 69.3515625 C172.47226562 70.22167969 172.38203125 71.09179688 172.2890625 71.98828125 C172.19367188 72.85839844 172.09828125 73.72851562 172 74.625 C171.90460938 75.53378906 171.80921875 76.44257812 171.7109375 77.37890625 C171.47856232 79.58647043 171.24153511 81.79342261 171 84 C159.41017898 85.25511887 147.81528912 86.28705705 136.1875 87.125 C134.3916748 87.25624268 134.3916748 87.25624268 132.55957031 87.39013672 C131.4197168 87.47021973 130.27986328 87.55030273 129.10546875 87.6328125 C127.59182739 87.73940186 127.59182739 87.73940186 126.04760742 87.84814453 C122.70217291 88.01484006 119.34958497 88 116 88 C115.67 82.72 115.34 77.44 115 72 C114.505 77.94 114.505 77.94 114 84 C110.18596959 84.41679095 106.37179423 84.82775669 102.5559082 85.22680664 C100.65711398 85.42749977 98.75919117 85.63638736 96.86132812 85.84570312 C84.19384213 87.1605561 71.82291772 87.48708329 59 88 C59 66.55 59 45.1 59 23 C58.505 24.485 58.505 24.485 58 26 C49.42 26.33 40.84 26.66 32 27 C32 28.65 32 30.3 32 32 C37.94 32 43.88 32 50 32 C49.855625 34.51625 49.71125 37.0325 49.5625 39.625 C49.51939697 40.40568848 49.47629395 41.18637695 49.43188477 41.99072266 C49.3747229 42.94277588 49.3747229 42.94277588 49.31640625 43.9140625 C49.27974854 44.5529541 49.24309082 45.1918457 49.20532227 45.85009766 C48.94424127 48.58384235 48.45146977 51.29118137 48 54 C42.06 54 36.12 54 30 54 C30 56.31 30 58.62 30 61 C38.25 61 46.5 61 55 61 C55.10482832 71.06351843 54.72955042 80.96868172 54 91 C35.31804584 91.89757408 16.69751868 92.12672979 -2 92 C-2.13175161 72.91020563 -1.96532084 53.83600753 -1.5625 34.75 C-1.54285187 33.76376648 -1.52320374 32.77753296 -1.50296021 31.76141357 C-1.44499105 28.89812465 -1.38161145 26.0350074 -1.31640625 23.171875 C-1.29968872 22.33739838 -1.28297119 21.50292175 -1.26574707 20.64315796 C-1.09612766 13.71420525 -0.53403056 6.94239725 0 0 Z " fill="#282828" transform="translate(324,712)"/>
<path d="M0 0 C2 2 2 2 2.15112305 4.30664062 C2.10511963 5.24701172 2.05911621 6.18738281 2.01171875 7.15625 C1.96466797 8.17847656 1.91761719 9.20070313 1.86914062 10.25390625 C1.77922852 11.86072266 1.77922852 11.86072266 1.6875 13.5 C1.63916016 14.57121094 1.59082031 15.64242187 1.54101562 16.74609375 C1.14425223 24.71149554 1.14425223 24.71149554 0 27 C-0.65484375 26.97905273 -1.3096875 26.95810547 -1.984375 26.93652344 C-4.98942328 26.85269617 -7.99422464 26.80113105 -11 26.75 C-12.02996094 26.71648438 -13.05992187 26.68296875 -14.12109375 26.6484375 C-20.57204525 26.56625977 -25.69678103 27.08026554 -31 31 C-33.44319227 33.83068782 -33.44319227 33.83068782 -35 37 C-35.4125 37.763125 -35.825 38.52625 -36.25 39.3125 C-37.69643652 44.49556419 -37.60384019 49.22202611 -35.875 54.3125 C-33.47078782 57.75853745 -31.87000143 59.27232079 -28 61 C-24.26768411 61.02570465 -20.67937213 60.60231715 -17 60 C-17 59.01 -17 58.02 -17 57 C-21.95 57 -26.9 57 -32 57 C-32.10994611 49.5236648 -31.62676998 42.5212398 -31 35 C-17.8 34.67 -4.6 34.34 9 34 C9.20717322 40.28425424 9.38606497 46.55659757 9.49438477 52.84155273 C9.53953854 54.97672733 9.60087969 57.11162524 9.67895508 59.24584961 C9.78864357 62.32214581 9.83927139 65.39475598 9.87890625 68.47265625 C9.92535782 69.42084732 9.97180939 70.36903839 10.01966858 71.34596252 C10.02281373 75.51188903 9.91889078 77.98863925 7.0473175 81.14918518 C-5.4718343 91.04948823 -20.33493268 94.13567231 -36 93 C-46.87480207 91.19511653 -56.22026391 84.56012897 -63 76 C-68.1839025 67.33386735 -70.05554951 60.10212193 -70.5625 50.1875 C-70.60568359 49.39923828 -70.64886719 48.61097656 -70.69335938 47.79882812 C-70.79878321 45.86605785 -70.89983094 43.93304974 -71 42 C-71.495 43.175625 -71.99 44.35125 -72.5 45.5625 C-74.95960155 50.5619075 -78.65789784 53.62749346 -83 57 C-82.41568096 60.87397899 -81.26728685 63.64831209 -79.27734375 67.01171875 C-78.73916016 67.93404297 -78.20097656 68.85636719 -77.64648438 69.80664062 C-77.08251953 70.75732422 -76.51855469 71.70800781 -75.9375 72.6875 C-74.81780997 74.58499967 -73.70172855 76.48463491 -72.58984375 78.38671875 C-72.09347412 79.22420654 -71.59710449 80.06169434 -71.08569336 80.92456055 C-70 83 -70 83 -70 85 C-73.8728998 85.84329993 -77.74861953 86.67285999 -81.625 87.5 C-83.26662109 87.85771484 -83.26662109 87.85771484 -84.94140625 88.22265625 C-86.00488281 88.44824219 -87.06835938 88.67382812 -88.1640625 88.90625 C-89.13811035 89.11572266 -90.1121582 89.32519531 -91.11572266 89.54101562 C-94.12418453 90.01976189 -96.95887878 90.07888771 -100 90 C-109 68.8647541 -109 68.8647541 -109 64 C-110.98 64 -112.96 64 -115 64 C-114.98839844 65.2065625 -114.97679687 66.413125 -114.96484375 67.65625 C-114.95545665 69.27083177 -114.94635744 70.88541524 -114.9375 72.5 C-114.92912109 73.29148437 -114.92074219 74.08296875 -114.91210938 74.8984375 C-114.90727539 76.07792969 -114.90727539 76.07792969 -114.90234375 77.28125 C-114.89448853 78.34956055 -114.89448853 78.34956055 -114.88647461 79.43945312 C-115.04325795 82.97567616 -115.56095463 86.48763705 -116 90 C-125.57 90 -135.14 90 -145 90 C-145.12725293 60.98633247 -144.63337055 32.00597805 -144 3 C-141.93847611 2.35105763 -139.87573742 1.7059736 -137.8125 1.0625 C-136.08966797 0.52302734 -136.08966797 0.52302734 -134.33203125 -0.02734375 C-126.91010103 -2.1938861 -119.95011753 -2.21831227 -112.25 -2.25 C-111.0125 -2.270625 -109.775 -2.29125 -108.5 -2.3125 C-96.40298424 -2.36397666 -86.75386217 0.42815444 -77.41796875 8.4375 C-74.61135094 11.5301918 -72.83554269 15.27772419 -71 19 C-70.505 19.99 -70.505 19.99 -70 21 C-69.76970044 23.37123246 -69.58880058 25.74741943 -69.4375 28.125 C-69.35371094 29.40632812 -69.26992188 30.68765625 -69.18359375 32.0078125 C-69.12300781 32.99523437 -69.06242188 33.98265625 -69 35 C-68.76216797 34.18208984 -68.76216797 34.18208984 -68.51953125 33.34765625 C-64.26111507 19.58426693 -56.30478136 8.73657596 -43.71875 1.40625 C-31.32400999 -5.00482242 -12.89866974 -5.78582305 0 0 Z " fill="#282828" transform="translate(859,713)"/>
<path d="M0 0 C6.20086492 5.20663342 10.02374753 10.25171896 10.8359375 18.5625 C10.96727159 30.54016864 10.96727159 30.54016864 6.5 35.125 C4.55324241 36.89607459 2.58692206 38.51237841 0.5 40.125 C1.09167969 40.51429688 1.68335938 40.90359375 2.29296875 41.3046875 C8.43512009 45.65329057 12.19959115 49.87926778 14.5 57.125 C15.80285538 64.76504517 13.54969329 71.0797414 9.3125 77.375 C-1.16514002 87.61980357 -16.8666717 87.55843845 -30.65405273 87.48266602 C-41.51302224 87.25545505 -50.44581111 85.4339381 -60.5 81.125 C-60.5 60.995 -60.5 40.865 -60.5 20.125 C-65.78 20.455 -71.06 20.785 -76.5 21.125 C-80.17672619 21.16035314 -83.82802087 21.19501655 -87.5 21.125 C-87.5 22.775 -87.5 24.425 -87.5 26.125 C-81.56 26.125 -75.62 26.125 -69.5 26.125 C-69.83 33.385 -70.16 40.645 -70.5 48.125 C-77.13961468 48.78896147 -82.95788013 49.23051806 -89.5 49.125 C-89.5 51.105 -89.5 53.085 -89.5 55.125 C-80.92 55.125 -72.34 55.125 -63.5 55.125 C-63.5 65.25 -63.5 65.25 -63.9375 69.59765625 C-64.07285156 70.9753418 -64.07285156 70.9753418 -64.2109375 72.38085938 C-64.35402344 73.77014648 -64.35402344 73.77014648 -64.5 75.1875 C-64.64308594 76.62899414 -64.64308594 76.62899414 -64.7890625 78.09960938 C-65.0221192 80.44182923 -65.25916349 82.78356955 -65.5 85.125 C-69.77841152 85.27240976 -74.05696496 85.41441919 -78.33569336 85.55224609 C-79.77909727 85.59940478 -81.22246062 85.64782859 -82.66577148 85.69775391 C-95.61201361 86.14401902 -108.54686215 86.18126483 -121.5 86.125 C-121.39102392 77.52568538 -121.27813953 68.92643365 -121.16066074 60.32723141 C-121.1061876 56.33153798 -121.05291521 52.3358371 -121.00268555 48.34008789 C-120.95389322 44.46259132 -120.90155774 40.58515547 -120.84705925 36.70773506 C-120.82714054 35.25027604 -120.80836513 33.79280078 -120.79092598 32.33530998 C-120.63688497 19.57582646 -120.05481152 6.88566506 -119.5 -5.875 C-99.7 -5.875 -79.9 -5.875 -59.5 -5.875 C-59.5 -4.225 -59.5 -2.575 -59.5 -0.875 C-58.34242188 -1.22433594 -57.18484375 -1.57367187 -55.9921875 -1.93359375 C-54.45318161 -2.39341868 -52.91411593 -2.85304352 -51.375 -3.3125 C-50.23417969 -3.65764648 -50.23417969 -3.65764648 -49.0703125 -4.00976562 C-33.40300678 -8.66943845 -13.94772185 -9.83327329 0 0 Z " fill="#282828" transform="translate(618.5,717.875)"/>
<path d="M0 0 C7.73732806 -0.13707865 15.29509996 0.27483294 23 1 C23 6.94 23 12.88 23 19 C23.65484375 17.6284375 24.3096875 16.256875 24.984375 14.84375 C32.03247414 0.90057224 32.03247414 0.90057224 36.91015625 -1.33203125 C40.14295407 -1.31027622 42.86298458 -0.78139509 46 0 C48.58160409 0.34647159 51.16500543 0.6798043 53.75 1 C55.83466778 1.32488329 57.91854313 1.65514324 60 2 C58.60516537 4.93692937 57.00837373 7.58426525 55.171875 10.265625 C54.61886719 11.07386719 54.06585937 11.88210937 53.49609375 12.71484375 C52.63177734 13.96974609 52.63177734 13.96974609 51.75 15.25 C51.18925781 16.07113281 50.62851562 16.89226562 50.05078125 17.73828125 C46.86133834 22.38617611 43.59118648 26.87265468 39.97753906 31.20214844 C38.82482491 32.93333167 38.82482491 32.93333167 39.14526367 34.86132812 C40.26819992 37.67107435 41.66868254 40.22578179 43.16015625 42.859375 C43.78857422 43.97441406 44.41699219 45.08945312 45.06445312 46.23828125 C45.73036633 47.40891243 46.39638327 48.57948461 47.0625 49.75 C47.73285619 50.93595253 48.40278289 52.12214793 49.07226562 53.30859375 C50.71063157 56.20814787 52.35335242 59.10514351 54 62 C55.61628896 58.85791091 56.74153916 55.82999765 57.75 52.4375 C58.95509259 48.43101681 60.17399533 44.43272243 61.453125 40.44921875 C64.22418605 31.81422926 66.84076971 23.19327171 69.04296875 14.39453125 C70.13400248 10.5247014 71.58824195 6.76468815 73 3 C82.24 2.34 91.48 1.68 101 1 C104.37656595 10.00417588 104.37656595 10.00417588 105.578125 14.3359375 C105.85269531 15.32078125 106.12726563 16.305625 106.41015625 17.3203125 C106.82587891 18.83238281 106.82587891 18.83238281 107.25 20.375 C107.51167969 21.3134375 107.77335938 22.251875 108.04296875 23.21875 C111.43925959 35.45791791 114.69801657 47.7354901 118 60 C118.66 40.86 119.32 21.72 120 2 C128.58 1.34 137.16 0.68 146 0 C147.69729921 3.73252224 149.39005392 7.4666418 151.07202148 11.20605469 C151.64467971 12.4757567 152.21983875 13.74433404 152.79760742 15.01171875 C153.63086743 16.84072087 154.45420466 18.67423321 155.27734375 20.5078125 C155.77484131 21.60754395 156.27233887 22.70727539 156.78491211 23.84033203 C157.97054744 26.9234127 158.5844898 29.7318939 159 33 C159.66 33 160.32 33 161 33 C161 23.1 161 13.2 161 3 C164.9909375 2.505 164.9909375 2.505 169.0625 2 C169.8862915 1.89558594 170.71008301 1.79117188 171.55883789 1.68359375 C172.23164795 1.60238281 172.90445801 1.52117187 173.59765625 1.4375 C174.27320557 1.35371094 174.94875488 1.26992187 175.64477539 1.18359375 C178.76668316 0.94023575 181.87012307 0.97346156 185 1 C185.11870002 12.71173517 184.85852864 24.35029656 184.20043945 36.04394531 C184.06101598 38.52642347 183.92939497 41.00922919 183.79882812 43.4921875 C182.86419142 60.95670336 182.86419142 60.95670336 182 67 C174.6702775 70.66486125 163.10181112 69.14880878 155 69 C151.1456539 58.39202092 147.54440162 47.7156328 144 37 C143.34 47.89 142.68 58.78 142 70 C134.41 70 126.82 70 119 70 C119 69.01 119 68.02 119 67 C118.13048706 67.13631836 118.13048706 67.13631836 117.2434082 67.27539062 C114.60036412 67.68749945 111.95645838 68.09380017 109.3125 68.5 C108.40048828 68.64308594 107.48847656 68.78617187 106.54882812 68.93359375 C105.66259766 69.06894531 104.77636719 69.20429688 103.86328125 69.34375 C102.64572144 69.53227539 102.64572144 69.53227539 101.40356445 69.72460938 C99 70 99 70 94 70 C93.01 64.555 93.01 64.555 92 59 C88.7 59 85.4 59 82 59 C81.855625 60.44375 81.71125 61.8875 81.5625 63.375 C81.125 67.75 81.125 67.75 80 70 C79.14019531 69.9278125 78.28039062 69.855625 77.39453125 69.78125 C65.38363608 68.83819171 54.25628708 68.36423018 42.46728516 71.02050781 C38.60894757 71.85931916 35.77507881 72.20778546 32 71 C30.42260742 69.23413086 30.42260742 69.23413086 29.10546875 66.96484375 C28.38520508 65.75151367 28.38520508 65.75151367 27.65039062 64.51367188 C27.16763672 63.66353516 26.68488281 62.81339844 26.1875 61.9375 C25.68541016 61.08349609 25.18332031 60.22949219 24.66601562 59.34960938 C23.4294444 57.24154986 22.21278085 55.1218355 21 53 C20.67 59.6 20.34 66.2 20 73 C9.11 73.495 9.11 73.495 -2 74 C-2.05099601 61.06886819 -1.88840647 48.15038603 -1.62768555 35.22192383 C-1.5619877 31.91168756 -1.50262532 28.60137255 -1.44335938 25.29101562 C-1.40142829 23.16145069 -1.35912414 21.03189305 -1.31640625 18.90234375 C-1.29969376 17.92514877 -1.28298126 16.9479538 -1.26576233 15.94114685 C-1.14967575 10.55424297 -0.77181003 5.33361143 0 0 Z " fill="#282828" transform="translate(691,219)"/>
<path d="M0 0 C1.86059067 0.12504527 3.71616186 0.32615099 5.56640625 0.55859375 C6.69111328 0.69716797 7.81582031 0.83574219 8.97460938 0.97851562 C10.15861328 1.12998047 11.34261719 1.28144531 12.5625 1.4375 C13.75037109 1.58509766 14.93824219 1.73269531 16.16210938 1.88476562 C19.10872152 2.25161292 22.05459773 2.62358169 25 3 C24.34 4.65 23.68 6.3 23 8 C24.05058594 7.7834375 25.10117187 7.566875 26.18359375 7.34375 C33.54650184 5.86853877 40.45235268 4.59566175 48 5 C48.20496094 6.14339844 48.40992188 7.28679687 48.62109375 8.46484375 C48.8930231 9.95576676 49.16516974 11.44665016 49.4375 12.9375 C49.57220703 13.69224609 49.70691406 14.44699219 49.84570312 15.22460938 C50.24272034 18.91953174 50.24272034 18.91953174 52 22 C52.25168945 21.49025635 52.50337891 20.9805127 52.76269531 20.45532227 C53.91087217 18.15028618 55.08004979 15.85655598 56.25 13.5625 C56.64574219 12.76005859 57.04148437 11.95761719 57.44921875 11.13085938 C57.84238281 10.36708984 58.23554687 9.60332031 58.640625 8.81640625 C58.99672852 8.10943604 59.35283203 7.40246582 59.71972656 6.67407227 C61 5 61 5 63.02197266 4.25390625 C65.19153104 3.97541443 66.96332517 4.11444527 69.125 4.4375 C76.14118935 5.29592447 82.31120135 5.61497118 89.125 3.5 C95.44700422 1.77955875 101.61379061 1.62593696 108.125 1.5625 C109.13836426 1.54058594 110.15172852 1.51867187 111.19580078 1.49609375 C119.92932598 1.51884101 127.37329154 3.31656317 133.9375 9.3125 C139.27620801 15.28077263 140.62556326 21.04707519 140.41796875 28.92578125 C139.55156324 35.29831527 136.85924784 40.26470201 132.1875 44.625 C131.465625 45.07875 130.74375 45.5325 130 46 C130.60837381 48.80817626 131.45550529 51.09195117 132.84765625 53.6015625 C133.20537109 54.25640625 133.56308594 54.91125 133.93164062 55.5859375 C134.30482422 56.25882812 134.67800781 56.93171875 135.0625 57.625 C139 64.73269231 139 64.73269231 139 67 C131.32721195 69.40152224 124.02616194 70.59378936 116 71 C115.73445312 70.19175781 115.46890625 69.38351562 115.1953125 68.55078125 C114.66550781 66.94783203 114.66550781 66.94783203 114.125 65.3125 C113.60292969 63.72888672 113.60292969 63.72888672 113.0703125 62.11328125 C112.39588449 60.15153262 111.6679901 58.20661083 110.8671875 56.29296875 C110 54 110 54 110 51 C108.35 51 106.7 51 105 51 C105 57.6 105 64.2 105 71 C97.41 71 89.82 71 82 71 C82 52.19 82 33.38 82 14 C78.37 18.95 74.74 23.9 71 29 C69.164375 30.98 67.32875 32.96 65.4375 35 C57.26739465 44.87203949 59.16575465 61.86977318 59 74 C51.08 74 43.16 74 35 74 C34.97421875 71.90140625 34.9484375 69.8028125 34.921875 67.640625 C34.88325373 65.56514141 34.83815959 63.4898897 34.79248047 61.41455078 C34.76458408 59.99311756 34.74321696 58.57153824 34.72900391 57.14990234 C34.63021429 47.81757631 33.57099782 39.73708587 30 31 C29.64752197 30.09467529 29.29504395 29.18935059 28.93188477 28.2565918 C27.98095175 25.82631891 26.99093226 23.41420176 26 21 C24.94199046 18.31198284 23.88531921 15.6234646 22.83203125 12.93359375 C22.15491333 11.03156904 22.15491333 11.03156904 21 10 C20.443125 10.81082031 19.88625 11.62164062 19.3125 12.45703125 C18.94680908 12.9873999 18.58111816 13.51776855 18.2043457 14.06420898 C17.39583708 15.23788226 16.58971405 16.4132022 15.78588867 17.59008789 C13.78286826 20.50432324 11.74429334 23.32381354 9.55078125 26.1015625 C8.44283203 27.50535156 8.44283203 27.50535156 7.3125 28.9375 C6.62800781 29.77152344 5.94351563 30.60554688 5.23828125 31.46484375 C3.72826709 33.94024419 3.72826709 33.94024419 4.42578125 36.66796875 C6.65698539 41.39059191 9.23092175 45.87309218 11.875 50.375 C15.45144315 56.50107293 18.90475117 62.61511474 22 69 C13.95530542 71.26791922 6.34639814 72.50319059 -2 73 C-5.96 66.73 -9.92 60.46 -14 54 C-14.33 60.6 -14.66 67.2 -15 74 C-20.59962976 74.62218108 -25.52999319 75.12073691 -31.0625 75.0625 C-32.75052734 75.04896484 -32.75052734 75.04896484 -34.47265625 75.03515625 C-35.72369141 75.01775391 -35.72369141 75.01775391 -37 75 C-37.40265184 50.28646889 -36.2342403 25.6765996 -35 1 C-32.78907984 0.98639201 -30.57813505 0.97675343 -28.3671875 0.96875 C-27.13597168 0.96294922 -25.90475586 0.95714844 -24.63623047 0.95117188 C-20.0324498 1.01299248 -15.56855194 1.44623613 -11 2 C-11 7.61 -11 13.22 -11 19 C-10.28972656 17.71222656 -9.57945312 16.42445313 -8.84765625 15.09765625 C-7.91935996 13.41922154 -6.99096969 11.7408388 -6.0625 10.0625 C-5.59392578 9.21236328 -5.12535156 8.36222656 -4.64257812 7.48632812 C-4.19462891 6.67744141 -3.74667969 5.86855469 -3.28515625 5.03515625 C-2.87144775 4.2862915 -2.45773926 3.53742676 -2.03149414 2.76586914 C-1 1 -1 1 0 0 Z " fill="#282828" transform="translate(548,218)"/>
<path d="M0 0 C1.2375 -0.020625 2.475 -0.04125 3.75 -0.0625 C10.83641558 -0.09265496 16.74095689 0.36950026 23.25 3.25 C24.10851562 3.61480469 24.96703125 3.97960937 25.8515625 4.35546875 C34.07991649 8.7555731 39.44230526 14.77980914 42.59765625 23.609375 C43.73563559 28.21580633 43.68554561 32.54887273 43.25 37.25 C43.17910156 38.0234375 43.10820312 38.796875 43.03515625 39.59375 C41.89782017 46.85225439 37.71524517 53.30003292 32.1484375 58.0390625 C30.25 59.25 30.25 59.25 28.25 59.25 C28.67410156 60.02714355 29.09820312 60.80428711 29.53515625 61.60498047 C31.10393066 64.48437108 32.66894872 67.36573653 34.23144531 70.24853516 C34.90898096 71.49674681 35.58801175 72.74414808 36.26855469 73.99072266 C37.24546501 75.78077554 38.21699348 77.57365648 39.1875 79.3671875 C39.77402344 80.44597168 40.36054688 81.52475586 40.96484375 82.63623047 C42.25 85.25 42.25 85.25 42.25 87.25 C38.3771002 88.09329993 34.50138047 88.92285999 30.625 89.75 C28.98337891 90.10771484 28.98337891 90.10771484 27.30859375 90.47265625 C26.24511719 90.69824219 25.18164062 90.92382812 24.0859375 91.15625 C23.11188965 91.36572266 22.1378418 91.57519531 21.13427734 91.79101562 C18.25 92.25 18.25 92.25 12.25 92.25 C7.795 79.875 7.795 79.875 3.25 67.25 C0.28 66.755 0.28 66.755 -2.75 66.25 C-2.74214478 67.16495239 -2.74214478 67.16495239 -2.73413086 68.09838867 C-2.71326665 70.87808185 -2.70030987 73.65775851 -2.6875 76.4375 C-2.67912109 77.39720703 -2.67074219 78.35691406 -2.66210938 79.34570312 C-2.65727539 80.74272461 -2.65727539 80.74272461 -2.65234375 82.16796875 C-2.64448853 83.44837036 -2.64448853 83.44837036 -2.63647461 84.75463867 C-2.75 87.25 -2.75 87.25 -3.75 92.25 C-13.32 92.25 -22.89 92.25 -32.75 92.25 C-32.85265434 73.32952155 -32.51088548 54.48987838 -31.82287598 35.58233643 C-31.69873378 32.14160142 -31.58011959 28.70067538 -31.4609375 25.25976562 C-31.22884974 18.58966427 -30.99159582 11.9197634 -30.75 5.25 C-28.85546779 4.60035977 -26.95931351 3.95544885 -25.0625 3.3125 C-24.00675781 2.95285156 -22.95101562 2.59320312 -21.86328125 2.22265625 C-14.5655584 -0.05730986 -7.59609856 0.03125966 0 0 Z " fill="#282828" transform="translate(277.75,710.75)"/>
<path d="M0 0 C2 2 2 2 2.15112305 4.30664062 C2.10511963 5.24701172 2.05911621 6.18738281 2.01171875 7.15625 C1.96466797 8.17847656 1.91761719 9.20070313 1.86914062 10.25390625 C1.80919922 11.32511719 1.74925781 12.39632812 1.6875 13.5 C1.63916016 14.57121094 1.59082031 15.64242187 1.54101562 16.74609375 C1.14425223 24.71149554 1.14425223 24.71149554 0 27 C-0.65484375 26.97905273 -1.3096875 26.95810547 -1.984375 26.93652344 C-4.98942328 26.85269617 -7.99422464 26.80113105 -11 26.75 C-12.02996094 26.71648438 -13.05992187 26.68296875 -14.12109375 26.6484375 C-20.57204525 26.56625977 -25.69678103 27.08026554 -31 31 C-33.44319227 33.83068782 -33.44319227 33.83068782 -35 37 C-35.4125 37.763125 -35.825 38.52625 -36.25 39.3125 C-37.69643652 44.49556419 -37.60384019 49.22202611 -35.875 54.3125 C-33.47078782 57.75853745 -31.87000143 59.27232079 -28 61 C-24.26768411 61.02570465 -20.67937213 60.60231715 -17 60 C-17 59.01 -17 58.02 -17 57 C-21.95 57 -26.9 57 -32 57 C-32.10994611 49.5236648 -31.62676998 42.5212398 -31 35 C-17.8 34.67 -4.6 34.34 9 34 C9.20717322 40.28425424 9.38606497 46.55659757 9.49438477 52.84155273 C9.53953854 54.97672733 9.60087969 57.11162524 9.67895508 59.24584961 C9.78864357 62.32214581 9.83927139 65.39475598 9.87890625 68.47265625 C9.92535782 69.42084732 9.97180939 70.36903839 10.01966858 71.34596252 C10.02281373 75.51188903 9.91889078 77.98863925 7.0473175 81.14918518 C-5.4718343 91.04948823 -20.33493268 94.13567231 -36 93 C-46.87480207 91.19511653 -56.22026391 84.56012897 -63 76 C-68.66773785 66.52502086 -70.16253804 58.65471432 -70.6875 47.8125 C-70.74744141 46.80251953 -70.80738281 45.79253906 -70.86914062 44.75195312 C-70.91619141 43.78837891 -70.96324219 42.82480469 -71.01171875 41.83203125 C-71.05772217 40.95264893 -71.10372559 40.0732666 -71.15112305 39.16723633 C-71 37 -71 37 -69 35 C-68.51117552 33.663503 -68.08068136 32.30519223 -67.6875 30.9375 C-63.1946334 17.08265029 -53.91982963 6.6826705 -41 0 C-29.76609117 -5.53784238 -11.32864628 -5.08157385 0 0 Z " fill="#282828" transform="translate(859,713)"/>
<path d="M0 0 C7.580095 5.76151594 12.8274068 12.94821553 14.83984375 22.3984375 C16.03326757 38.18417982 14.61489961 50.51406034 4.83984375 63.3984375 C-1.4879907 70.45583404 -10.6657782 75.06626995 -20.1015625 75.63671875 C-32.57007411 75.93812559 -42.2018911 74.66211998 -52.08984375 66.38671875 C-60.9531313 57.87461807 -65.13960497 49.05809152 -65.50390625 36.81225586 C-65.66695194 23.89215834 -62.95433354 14.66413914 -54.39453125 4.65625 C-39.26219056 -10.63482154 -17.74212805 -11.97321525 0 0 Z " fill="#272727" transform="translate(697.16015625,725.6015625)"/>
<path d="M0 0 C23.43 0 46.86 0 71 0 C70.67 9.57 70.34 19.14 70 29 C63.73 29 57.46 29 51 29 C51.04125 30.82789063 51.0825 32.65578125 51.125 34.5390625 C51.125 45.2000817 49.99789739 55.76982871 49 66.375 C48.80671214 68.47911351 48.61399944 70.58327994 48.421875 72.6875 C47.95454026 77.79230049 47.47944595 82.89632336 47 88 C37.51541962 89.89691608 27.67241209 89 18 89 C18 69.86 18 50.72 18 31 C12.06 31.33 6.12 31.66 0 32 C0 21.44 0 10.88 0 0 Z " fill="#272727" transform="translate(174,713)"/>
<path d="M0 0 C1.69975874 3.73128958 3.39007953 7.46669873 5.07202148 11.20605469 C5.64467971 12.4757567 6.21983875 13.74433404 6.79760742 15.01171875 C7.63086743 16.84072087 8.45420466 18.67423321 9.27734375 20.5078125 C9.77484131 21.60754395 10.27233887 22.70727539 10.78491211 23.84033203 C11.97054744 26.9234127 12.5844898 29.7318939 13 33 C13.66 33 14.32 33 15 33 C15 23.1 15 13.2 15 3 C18.9909375 2.505 18.9909375 2.505 23.0625 2 C23.8862915 1.89558594 24.71008301 1.79117188 25.55883789 1.68359375 C26.23164795 1.60238281 26.90445801 1.52117187 27.59765625 1.4375 C28.27320557 1.35371094 28.94875488 1.26992187 29.64477539 1.18359375 C32.76668316 0.94023575 35.87012307 0.97346156 39 1 C39.11870002 12.71173517 38.85852864 24.35029656 38.20043945 36.04394531 C38.06101598 38.52642347 37.92939497 41.00922919 37.79882812 43.4921875 C36.86419142 60.95670336 36.86419142 60.95670336 36 67 C28.6702775 70.66486125 17.10181112 69.14880878 9 69 C5.1456539 58.39202092 1.54440162 47.7156328 -2 37 C-2.66 47.89 -3.32 58.78 -4 70 C-11.59 70 -19.18 70 -27 70 C-27.11390765 47.30706566 -26.92165029 24.67602879 -26 2 C-22.60454455 1.66274171 -19.2085816 1.33088879 -15.8125 1 C-14.85279297 0.90460938 -13.89308594 0.80921875 -12.90429688 0.7109375 C-11.97294922 0.62070313 -11.04160156 0.53046875 -10.08203125 0.4375 C-9.22843018 0.35371094 -8.3748291 0.26992187 -7.49536133 0.18359375 C-4.98711079 -0.00094831 -2.51404403 -0.03149938 0 0 Z " fill="#272727" transform="translate(305,219)"/>
<path d="M0 0 C0.70600342 0.00459229 1.41200684 0.00918457 2.1394043 0.01391602 C8.34181217 0.12205175 13.28229771 1.30243257 19.125 3.25 C19.22849817 9.66688675 18.87007544 15.87694402 18.125 22.25 C16.9184375 22.19199219 15.711875 22.13398438 14.46875 22.07421875 C3.34258791 21.40587919 3.34258791 21.40587919 -6.5625 25.765625 C-10.33205195 30.02880876 -10.22835104 34.1377144 -10.140625 39.61328125 C-9.76831521 43.30900341 -8.4698027 45.6551973 -5.875 48.25 C-4.35571962 48.32179964 -2.83332518 48.33392007 -1.3125 48.3125 C-0.48621094 48.30347656 0.34007812 48.29445313 1.19140625 48.28515625 C1.82949219 48.27355469 2.46757812 48.26195312 3.125 48.25 C3.455 47.26 3.785 46.27 4.125 45.25 C0.495 45.25 -3.135 45.25 -6.875 45.25 C-6.90192484 42.95839681 -6.92136124 40.66670454 -6.9375 38.375 C-6.94910156 37.09882813 -6.96070313 35.82265625 -6.97265625 34.5078125 C-6.875 31.25 -6.875 31.25 -5.875 29.25 C4.025 28.92 13.925 28.59 24.125 28.25 C24.26305767 33.00276301 24.38236048 37.74853508 24.45458984 42.50170898 C24.48470087 44.11685796 24.52560063 45.73184423 24.57763672 47.34643555 C24.65071534 49.67277163 24.6845088 51.99694148 24.7109375 54.32421875 C24.74190521 55.04212082 24.77287292 55.76002289 24.80477905 56.49967957 C24.80666522 59.33122074 24.68499812 61.5701418 22.84312439 63.8062439 C19.81164271 66.39505253 16.66213226 68.13718882 12.9375 69.5 C12.09832031 69.81453125 11.25914062 70.1290625 10.39453125 70.453125 C1.04948704 73.73434534 -10.47567937 74.00512286 -19.5625 69.75 C-26.93396315 65.38625694 -32.317474 59.54959487 -35.2109375 51.41015625 C-37.6286915 39.90449163 -37.28875231 27.36284667 -30.875 17.25 C-22.87464577 6.45104277 -13.75725312 -0.18395096 0 0 Z " fill="#282828" transform="translate(380.875,218.75)"/>
<path d="M0 0 C4.51342623 3.20069769 9.14474657 7.25668804 11.07421875 12.58203125 C12.06980163 19.23154163 12.77474023 26.31258463 9.203125 32.2578125 C6.93157795 35.28442686 4.58024916 37.61834793 1.390625 39.6953125 C0.86210937 40.04335938 0.33359375 40.39140625 -0.2109375 40.75 C-6.57228056 44.45852765 -13.3865489 44.86190949 -20.609375 45.6953125 C-20.609375 52.9553125 -20.609375 60.2153125 -20.609375 67.6953125 C-28.859375 67.6953125 -37.109375 67.6953125 -45.609375 67.6953125 C-45.609375 45.2553125 -45.609375 22.8153125 -45.609375 -0.3046875 C-31.47428334 -3.56663173 -13.74935153 -7.0354869 0 0 Z " fill="#2A2A2A" transform="translate(236.609375,223.3046875)"/>
<path d="M0 0 C0.71671875 -0.00773438 1.4334375 -0.01546875 2.171875 -0.0234375 C7.87939554 -0.00283273 13.44848433 0.66174216 18.625 3.25 C18.65203562 5.83340384 18.67185611 8.41652308 18.6875 11 C18.69587891 11.72960937 18.70425781 12.45921875 18.71289062 13.2109375 C18.72891684 16.73670558 18.57792713 19.86034916 17.625 23.25 C17.05394531 23.1778125 16.48289062 23.105625 15.89453125 23.03125 C8.78833588 22.21782223 1.77197766 22.14918057 -5.375 22.25 C-5.375 23.57 -5.375 24.89 -5.375 26.25 C-4.54097656 26.28738281 -3.70695312 26.32476562 -2.84765625 26.36328125 C13.25708416 27.30410801 13.25708416 27.30410801 18.21484375 31.640625 C22.8829306 36.99877686 24.13812961 41.33421803 24.0078125 48.296875 C23.08194219 55.43930313 19.22917721 61.79213177 13.625 66.25 C8.82425965 69.37627062 4.43905253 71.8940376 -1.375 72.25 C-2.06722656 72.32347656 -2.75945312 72.39695312 -3.47265625 72.47265625 C-11.22725651 72.96441139 -20.81269479 70.76855481 -27.07177734 65.94140625 C-28.80818457 63.68778518 -28.58599634 62.58886604 -28.23046875 59.80078125 C-28.13056641 58.95322266 -28.03066406 58.10566406 -27.92773438 57.23242188 C-27.80720703 56.35134766 -27.68667969 55.47027344 -27.5625 54.5625 C-27.45357422 53.66982422 -27.34464844 52.77714844 -27.23242188 51.85742188 C-26.96124991 49.6526759 -26.67494714 47.45098487 -26.375 45.25 C-23.19357237 45.81303616 -20.75819909 46.51586246 -17.75 47.8125 C-12.7018811 49.80466953 -7.72094712 49.51533193 -2.375 49.25 C-1.715 47.93 -1.055 46.61 -0.375 45.25 C-1.2928125 45.23582031 -2.210625 45.22164063 -3.15625 45.20703125 C-12.59484659 44.84019504 -18.21952727 43.62418182 -24.75 36.75 C-28.62920166 30.78199744 -29.27699799 25.23568657 -28.375 18.25 C-25.99980017 10.96297916 -20.86825137 6.09903735 -14.375 2.25 C-9.50247003 0.17555655 -5.20156697 -0.05553274 0 0 Z " fill="#292929" transform="translate(434.375,218.75)"/>
<path d="M0 0 C17.82 0 35.64 0 54 0 C54 6.93 54 13.86 54 21 C49.05 21.33 44.1 21.66 39 22 C39.0309375 23.45019531 39.061875 24.90039062 39.09375 26.39453125 C39.09375 34.53237881 38.2578338 42.59291947 37.5 50.6875 C37.3550161 52.27534936 37.21048156 53.86323982 37.06640625 55.45117188 C36.71693541 59.30137645 36.35828531 63.15056556 36 67 C28.74 67 21.48 67 14 67 C14 52.48 14 37.96 14 23 C9.38 23 4.76 23 0 23 C0 15.41 0 7.82 0 0 Z " fill="#282828" transform="translate(457,221)"/>
<path d="M0 0 C0.38472671 11.30875907 -0.65806505 22.47815354 -1.65405273 33.73168945 C-1.93896635 36.95408448 -2.2152542 40.17713418 -2.49023438 43.40039062 C-2.66877148 45.46358494 -2.84779069 47.5267376 -3.02734375 49.58984375 C-3.10967758 50.54616196 -3.19201141 51.50248016 -3.27684021 52.48777771 C-3.68156947 57.03328291 -4.16041755 61.50900396 -5 66 C-10.03854106 66.83211276 -14.8125662 67.1078534 -19.9375 67.0625 C-20.62134766 67.05798828 -21.30519531 67.05347656 -22.00976562 67.04882812 C-23.67321604 67.0371956 -25.3366205 67.01926694 -27 67 C-27.02312659 58.54232666 -27.0409167 50.08466644 -27.05181217 41.62696934 C-27.05704031 37.70011342 -27.06413669 33.77327906 -27.07543945 29.84643555 C-27.0862708 26.05985743 -27.09227736 22.2733001 -27.09487724 18.48670769 C-27.09673105 17.03895681 -27.10035081 15.59120712 -27.10573006 14.14346504 C-27.11294367 12.12242865 -27.11340808 10.10137152 -27.11352539 8.08032227 C-27.115746 6.92782486 -27.11796661 5.77532745 -27.12025452 4.58790588 C-27 2 -27 2 -26 1 C-17.35856463 0.00148892 -8.68746028 -0.11514911 0 0 Z " fill="#2A2A2A" transform="translate(276,222)"/>
<path d="M0 0 C2.69105198 2.17574416 4.45532928 3.91065856 6 7 C6.12207871 8.78859511 6.17548448 10.58228381 6.1875 12.375 C6.20167969 13.33148437 6.21585938 14.28796875 6.23046875 15.2734375 C5.99371189 18.07439159 5.50013135 19.64787767 4 22 C0.5162031 24.86900921 -2.64996205 25.63802107 -7.06640625 25.49609375 C-10.69958529 24.56394478 -11.99181629 22.04270259 -14 19 C-15.86233425 15.27533151 -15.57130829 11.05504687 -15 7 C-11.68141975 0.79623618 -6.85202324 -1.20763628 0 0 Z " fill="#FAFAFA" transform="translate(676,748)"/>
<path d="M0 0 C2.12063984 1.97418681 3.11210064 3.23948772 4.375 5.9375 C6.78499098 10.47940608 10.30629325 13.04497628 15 15 C17.03350002 15.26160411 19.07815083 15.44431583 21.125 15.5625 C26.80555556 15.90277778 26.80555556 15.90277778 29 17 C28.125 20.875 28.125 20.875 27 22 C19.91826901 22.64718807 14.4545994 21.89344111 8 19 C5.525 18.01 5.525 18.01 3 17 C2.67 23.27 2.34 29.54 2 36 C-0.42869909 32.35695136 -0.25675675 29.69277661 -0.1953125 25.48828125 C-0.1924826 24.76005661 -0.18965271 24.03183197 -0.18673706 23.28153992 C-0.17555257 20.95835863 -0.15045166 18.63556453 -0.125 16.3125 C-0.11496794 14.7363337 -0.10584248 13.16016135 -0.09765625 11.58398438 C-0.07561896 7.72250733 -0.04110141 3.86131929 0 0 Z " fill="#E9E9E9" transform="translate(405,247)"/>
<path d="M0 0 C0.02934144 3.97915085 0.04691265 7.95827337 0.0625 11.9375 C0.07087891 13.05447266 0.07925781 14.17144531 0.08789062 15.32226562 C0.10641749 21.63992667 -0.15660583 27.73763227 -1 34 C-3.475 34.495 -3.475 34.495 -6 35 C-4.515 34.505 -4.515 34.505 -3 34 C-3.3081665 33.47567383 -3.61633301 32.95134766 -3.93383789 32.41113281 C-5.32293041 30.03133498 -6.69280361 27.64100949 -8.0625 25.25 C-8.54783203 24.425 -9.03316406 23.6 -9.53320312 22.75 C-9.98759766 21.95078125 -10.44199219 21.1515625 -10.91015625 20.328125 C-11.33433838 19.5949707 -11.75852051 18.86181641 -12.19555664 18.10644531 C-13.16324137 15.57255036 -13.0477484 14.4783469 -12 12 C-10.824375 11.1028125 -10.824375 11.1028125 -9.625 10.1875 C-6.25866585 7.38222154 -5.59796365 5.03295589 -4 1 C-2 0 -2 0 0 0 Z " fill="#EFEFEF" transform="translate(690,251)"/>
<path d="M0 0 C4.6613779 -0.32521241 7.24064446 0.18048334 11 3 C13.46141247 6.6921187 13.68650207 9.71354805 13 14 C10.90419111 17.4431146 8.8734599 19.7468218 5 21 C1.75 21.125 1.75 21.125 -1 21 C-1.12109311 13.92278069 -0.85373239 7.02804699 0 0 Z " fill="#F8F8F8" transform="translate(746,734)"/>
<path d="M0 0 C7 0 7 0 9.875 1.875 C12.71941408 4.71941408 13.20354172 6.3887432 13.375 10.3125 C13.31723916 13.89944824 13.07500585 14.88749122 11 18 C8 20 8 20 0 21 C0 14.07 0 7.14 0 0 Z " fill="#F8F8F8" transform="translate(277,734)"/>
<path d="M0 0 C7 0 7 0 9.4375 2.125 C11.29055839 5.53462745 11.71588388 7.18195263 11 11 C7.43704032 15.71568193 6.11646274 15.98058954 0 17 C0 11.39 0 5.78 0 0 Z " fill="#F1F1F1" transform="translate(654,237)"/>
<path d="M0 0 C6.3782235 -0.36103152 6.3782235 -0.36103152 8.9375 1.125 C10.52225401 3.92162472 10.45947423 5.8493196 10 9 C8.375 10.875 8.375 10.875 6 12 C4.02 12 2.04 12 0 12 C0 8.04 0 4.08 0 0 Z " fill="#F5F5F5" transform="translate(589,767)"/>
<path d="M0 0 C3.375 -0.125 3.375 -0.125 7 0 C9 2 9 2 9.4375 5.375 C9 9 9 9 6.75 11.4375 C4 13 4 13 0 13 C0 8.71 0 4.42 0 0 Z " fill="#F5F5F5" transform="translate(216,240)"/>
<path d="M0 0 C3.125 0.25 3.125 0.25 5 1.4375 C6.57590926 3.97646491 6.69787294 5.31402619 6.125 8.25 C3.59896249 10.92038251 2.17532311 12.2086004 -1.55078125 12.35546875 C-2.31777344 12.32066406 -3.08476563 12.28585937 -3.875 12.25 C-3.90187279 10.43757948 -3.92133715 8.62504767 -3.9375 6.8125 C-3.94910156 5.80316406 -3.96070313 4.79382813 -3.97265625 3.75390625 C-3.83272018 0.1659454 -3.61391849 0.31425378 0 0 Z " fill="#EEEEEE" transform="translate(592.875,739.75)"/>
<path d="M0 0 C0.33 0 0.66 0 1 0 C1 6.6 1 13.2 1 20 C0.01 19.67 -0.98 19.34 -2 19 C-2 14.05 -2 9.1 -2 4 C-1.34 4 -0.68 4 0 4 C0 2.68 0 1.36 0 0 Z " fill="#C9C9C9" transform="translate(714,748)"/>
<path d="M0 0 C0.66 0 1.32 0 2 0 C2.33 3.96 2.66 7.92 3 12 C1.68 12 0.36 12 -1 12 C-1.08159574 7.83861737 -0.98248524 4.0527516 0 0 Z " fill="#E8E8E8" transform="translate(777,251)"/>
<path d="M0 0 C0.66 0.33 1.32 0.66 2 1 C2 4.63 2 8.26 2 12 C1.01 12 0.02 12 -1 12 C-0.67 8.04 -0.34 4.08 0 0 Z " fill="#CACACA" transform="translate(343,251)"/>
<path d="M0 0 C0.33 0 0.66 0 1 0 C1 5.28 1 10.56 1 16 C0.67 16 0.34 16 0 16 C-0.33 13.36 -0.66 10.72 -1 8 C-1.99 8.495 -1.99 8.495 -3 9 C-2.01 6.03 -1.02 3.06 0 0 Z " fill="#BFBFBF" transform="translate(788,753)"/>
</svg>
