<?xml version="1.0" encoding="UTF-8"?>
<svg version="1.1" xmlns="http://www.w3.org/2000/svg" width="1043" height="1042">
<path d="M0 0 C344.19 0 688.38 0 1043 0 C1043 343.86 1043 687.72 1043 1042 C698.81 1042 354.62 1042 0 1042 C0 698.14 0 354.28 0 0 Z " fill="#FEFEFE" transform="translate(0,0)"/>
<path d="M0 0 C344.19 0 688.38 0 1043 0 C1043 343.86 1043 687.72 1043 1042 C698.81 1042 354.62 1042 0 1042 C0 698.14 0 354.28 0 0 Z M494.875 6.4375 C493.6900293 6.47665527 492.50505859 6.51581055 491.28417969 6.55615234 C480.60924234 6.94713728 470.04849484 7.52776208 459.5234375 9.40625 C455.95351817 10.00783286 452.3799855 10.51519399 448.79370117 11.00708008 C394.33427985 18.51511666 341.02879161 34.47468995 292.16894531 59.87646484 C289.65834378 61.1769813 287.13763651 62.45695777 284.6171875 63.73828125 C254.40944549 79.18802302 226.41827928 97.72985584 200 119 C199.02417969 119.78117187 198.04835937 120.56234375 197.04296875 121.3671875 C191.661299 125.71768416 186.45394913 130.21723357 181.33984375 134.87890625 C179.21195185 136.80786335 177.05279141 138.69036353 174.875 140.5625 C171.41258101 143.57299683 168.19932233 146.77975926 164.984375 150.05078125 C163.13767964 151.86475957 161.23426324 153.52711444 159.25 155.1875 C153.89569275 159.7978624 149.26324747 165.08626002 144.53027344 170.31689453 C143.06482983 171.92869547 141.58646856 173.52722701 140.1015625 175.12109375 C134.13123997 181.53965739 128.47819707 188.15451739 123 195 C122.07759625 196.13083957 121.15437804 197.26101515 120.23046875 198.390625 C97.0880928 226.81149108 77.84735472 257.91229133 61.25146484 290.54833984 C60.20986627 292.58886517 59.15269433 294.61918874 58.08203125 296.64453125 C44.8765524 322.08311402 35.15354883 349.56733093 27 377 C26.66790527 378.1139917 26.66790527 378.1139917 26.32910156 379.25048828 C23.40795856 389.14848751 21.02066164 399.08948061 18.9921875 409.20703125 C18.26894978 412.80640924 17.43393321 416.36838241 16.57421875 419.9375 C14.63874476 428.29286129 13.23733685 436.71354379 11.9375 445.1875 C11.80615662 446.04239014 11.67481323 446.89728027 11.53948975 447.77807617 C8.47470177 468.11256734 7.46428911 488.45998903 7 509 C6.97212402 510.21623047 6.94424805 511.43246094 6.91552734 512.68554688 C6.80801549 518.47894986 6.81473292 524.26119715 6.93798828 530.05419922 C6.98203936 532.14679888 7.01580183 534.2396263 7.04248047 536.33251953 C7.41820692 564.46552175 10.27172094 592.44111412 16 620 C16.35336426 621.7629541 16.35336426 621.7629541 16.71386719 623.56152344 C20.64974807 643.12240695 25.68733042 662.04857146 32 681 C32.36351563 682.11068848 32.72703125 683.22137695 33.1015625 684.36572266 C41.44098126 709.78520097 52.07104373 734.0719899 64 758 C64.42104004 758.8461084 64.84208008 759.6922168 65.27587891 760.56396484 C83.78728984 797.46004729 108.15491127 832.44901302 136.0546875 862.87109375 C137.9306363 864.92408992 139.75007915 867.01592731 141.5625 869.125 C144.5693627 872.58323932 147.77182589 875.7930013 151.0390625 879.00390625 C152.91661121 880.91511619 154.64809414 882.89034635 156.375 884.9375 C159.81123298 888.93859319 163.64221551 892.36805801 167.59765625 895.84765625 C169.63195469 897.67025534 171.54434528 899.53420625 173.4375 901.5 C177.11343262 905.24512665 181.16937106 908.46743492 185.25390625 911.75390625 C187.6743574 913.73364937 190.00119141 915.77028882 192.3125 917.875 C238.2857666 959.0560003 298.50953647 993.05059032 357.74072266 1010.28613281 C360 1011 360 1011 363.43359375 1012.484375 C368.20183017 1014.51074491 373.07409796 1015.87049811 378.0625 1017.25 C379.14523193 1017.55010986 380.22796387 1017.85021973 381.34350586 1018.15942383 C407.39035717 1025.26815542 433.62445755 1030.97481106 460.515625 1033.60546875 C464 1034 464 1034 465.85009766 1034.49169922 C530.14382525 1049.6926464 617.77640084 1032.95639613 679 1013 C679.92458008 1012.69868164 680.84916016 1012.39736328 681.80175781 1012.08691406 C697.83481337 1006.80221316 713.44978473 1000.55834003 729 994 C729.87060059 993.63374512 730.74120117 993.26749023 731.63818359 992.89013672 C743.43427208 987.89146937 754.76959538 982.15840404 766 976 C766.92538574 975.49275391 767.85077148 974.98550781 768.80419922 974.46289062 C781.53398295 967.44987104 793.94246323 960.11368875 806 952 C806.77327637 951.484375 807.54655273 950.96875 808.34326172 950.4375 C818.27497467 943.80706054 827.94922058 936.97822142 837.21826172 929.44628906 C839.16073786 927.86952438 841.11321647 926.30565739 843.06640625 924.7421875 C849.81515026 919.32146532 856.4568098 913.836892 862.8359375 907.98046875 C864.89991208 906.09159671 867.00290254 904.2605374 869.125 902.4375 C872.58323932 899.4306373 875.7930013 896.22817411 879.00390625 892.9609375 C880.91511619 891.08338879 882.89034635 889.35190586 884.9375 887.625 C888.93859319 884.18876702 892.36805801 880.35778449 895.84765625 876.40234375 C897.67025534 874.36804531 899.53420625 872.45565472 901.5 870.5625 C905.24849565 866.88326062 908.47366717 862.82371647 911.76171875 858.734375 C913.69441974 856.37330922 915.6844615 854.11882708 917.75 851.875 C944.67090108 821.86219345 965.98745119 785.86048382 984 750 C984.42877441 749.15179687 984.85754883 748.30359375 985.29931641 747.4296875 C998.58618742 720.96999586 1008.38011311 693.26661061 1017 665 C1017.32475311 663.93853256 1017.32475311 663.93853256 1017.65606689 662.85562134 C1020.4818253 653.57778808 1023.01763193 644.31350895 1025 634.8125 C1025.24854736 633.63179932 1025.49709473 632.45109863 1025.75317383 631.23461914 C1032.48520534 598.63391478 1036.43663007 566.28107863 1037 533 C1037.03287109 531.52442627 1037.03287109 531.52442627 1037.06640625 530.01904297 C1037.21456497 523.00743148 1037.16069467 516.01111761 1037 509 C1036.98386658 508.28626221 1036.96773315 507.57252441 1036.95111084 506.8371582 C1036.46203755 486.2538343 1035.24909331 465.92746655 1032.125 445.5625 C1032.00211609 444.75917236 1031.87923218 443.95584473 1031.75262451 443.12817383 C1029.91776991 431.33037801 1027.56063523 419.65974313 1025 408 C1024.83921463 407.26641769 1024.67842926 406.53283539 1024.51277161 405.77702332 C1017.77231651 375.1603121 1007.5730691 345.29920699 995.10791016 316.5625 C994.11096209 314.25664569 993.13492749 311.94354619 992.16796875 309.625 C987.73281036 299.08604787 982.45255797 289.04331346 977 279 C976.39865234 277.88238281 976.39865234 277.88238281 975.78515625 276.7421875 C965.95167405 258.49382382 955.06213807 240.86057985 943 224 C942.46793945 223.25540527 941.93587891 222.51081055 941.38769531 221.74365234 C930.98650059 207.25820314 920.00436933 193.27817301 907.9453125 180.12890625 C906.0693637 178.07591008 904.24992085 175.98407269 902.4375 173.875 C899.4306373 170.41676068 896.22817411 167.2069987 892.9609375 163.99609375 C891.08338879 162.08488381 889.35190586 160.10965365 887.625 158.0625 C884.18876702 154.06140681 880.35778449 150.63194199 876.40234375 147.15234375 C874.36804531 145.32974466 872.45565472 143.46579375 870.5625 141.5 C866.88656738 137.75487335 862.83062894 134.53256508 858.74609375 131.24609375 C856.3256426 129.26635063 853.99880859 127.22971118 851.6875 125.125 C807.06112423 85.15049026 751.63964395 56.39547717 695.69921875 35.98730469 C693.35739626 35.13072635 691.02172119 34.25981275 688.6875 33.3828125 C627.05283924 10.54730327 560.1372749 4.27986288 494.875 6.4375 Z " fill="#FEFEFE" transform="translate(0,0)"/>
<path d="M0 0 C38.94 0 77.88 0 118 0 C118 18.37606319 118 18.37606319 117.48095703 25.81054688 C117.42564819 26.66546722 117.37033936 27.52038757 117.31335449 28.4012146 C117.13289116 31.17405934 116.9452966 33.94637199 116.7578125 36.71875 C116.62754195 38.7075249 116.49782471 40.69633611 116.36862183 42.68518066 C116.0284981 47.90438672 115.68275787 53.12320288 115.33520508 58.34191895 C114.71950372 67.5920988 114.11105441 76.84274971 113.5078125 86.09375 C113.44184372 87.10252827 113.37587494 88.11130653 113.3079071 89.15065384 C112.33532286 104.07796187 111.50905273 119.00738315 110.79339218 133.94906235 C110.17827029 146.78382672 109.41155158 159.59783666 108.48181152 172.41415405 C106.28656215 202.82078545 104.52702068 233.25416579 102.75 263.6875 C102.68154373 264.85936104 102.61308746 266.03122208 102.54255676 267.23859406 C101.69067562 281.825477 100.84312851 296.4126086 100 311 C81.14902167 312.10555222 62.29969978 313.20858606 43.43261719 314.00537109 C40.56941392 314.12736845 37.706612 314.25698326 34.84375 314.38671875 C32.92970704 314.46920458 31.01564514 314.55125242 29.1015625 314.6328125 C27.88673691 314.68902267 27.88673691 314.68902267 26.64736938 314.74636841 C16.75344835 315.1484623 6.92769719 315 -3 315 C-3 264.51 -3 214.02 -3 162 C-6.444375 174.354375 -9.88875 186.70875 -13.4375 199.4375 C-14.50411865 203.26142334 -15.5707373 207.08534668 -16.66967773 211.02514648 C-17.5495866 214.18205405 -18.42931828 217.33900983 -19.30859375 220.49609375 C-19.54277952 221.3367935 -19.77696529 222.17749325 -20.0182476 223.04366875 C-23.76968494 236.5165431 -27.47556948 250.00132584 -31.12461853 263.50230408 C-31.46127029 264.74428055 -31.79792206 265.98625702 -32.14477539 267.26586914 C-32.43252335 268.33148575 -32.7202713 269.39710236 -33.01673889 270.49501038 C-34.28444543 275.0139507 -35.65136456 279.50454852 -37 284 C-51.19 284 -65.38 284 -80 284 C-81.8219126 277.31965378 -83.57080706 270.76057153 -84.98046875 264.00390625 C-85.15434113 263.18458115 -85.3282135 262.36525604 -85.50735474 261.52110291 C-85.87815995 259.77296981 -86.24764063 258.02455529 -86.61587524 256.27587891 C-87.59866933 251.61076826 -88.59242127 246.94799326 -89.5859375 242.28515625 C-89.78719742 241.33980011 -89.98845734 240.39444397 -90.19581604 239.42044067 C-92.1836123 230.10221226 -94.23701795 220.79904145 -96.3125 211.5 C-96.4710849 210.78925323 -96.6296698 210.07850647 -96.7930603 209.34622192 C-97.86060829 204.56382718 -98.93047312 199.78195318 -100 195 C-101.32 189.06 -102.64 183.12 -104 177 C-104.33 218.58 -104.66 260.16 -105 303 C-136.0625 303.9375 -136.0625 303.9375 -145.71118164 304.22631836 C-148.31918593 304.30540755 -150.92717799 304.38490084 -153.53515625 304.46484375 C-154.22935228 304.48604719 -154.92354832 304.50725063 -155.63878059 304.5290966 C-165.55499019 304.83402126 -175.46408234 305.22878106 -185.3740387 305.6962738 C-193.25398305 306.05035325 -201.11300256 306.10302319 -209 306 C-209.02597236 300.18538703 -209.04341108 294.37081192 -209.05493164 288.55615234 C-209.05976441 286.60464896 -209.06641582 284.65314866 -209.07543945 282.70166016 C-209.13704432 268.96739817 -208.93865804 255.24898133 -208.62460136 241.51926994 C-208.08683065 217.97118441 -207.76833205 194.42348808 -207.5 170.87109375 C-207.47926455 169.06375235 -207.45851701 167.2564111 -207.43775749 165.44906998 C-207.26693977 150.54796059 -207.10099758 135.64679687 -206.9375 120.74560547 C-206.82463302 110.46139799 -206.71026735 100.17721183 -206.59148407 89.89307076 C-206.54096623 85.508138 -206.49164428 81.12320004 -206.44555664 76.73821831 C-206.22167204 55.47995802 -205.7937161 34.24520116 -205 13 C-199.92404792 12.3199123 -194.92788004 11.8289949 -189.80664062 11.61108398 C-188.79934402 11.56697388 -188.79934402 11.56697388 -187.771698 11.52197266 C-185.56668281 11.42647913 -183.36150035 11.33598179 -181.15625 11.24609375 C-179.58524157 11.18036251 -178.01423742 11.11452883 -176.4432373 11.04859924 C-173.14161361 10.91095369 -169.83989043 10.77605666 -166.53808594 10.64282227 C-163.22212277 10.50868369 -159.90640169 10.37006944 -156.59082031 10.22680664 C-134.71314889 9.28222298 -112.89880653 8.78528047 -91 9 C-89.97913795 12.38740588 -88.95829188 15.77481655 -87.93756104 19.16226196 C-87.35020166 21.11093271 -86.76264542 23.05954427 -86.17425537 25.00790405 C-83.59796675 33.539269 -81.10709928 42.09149815 -78.67082214 50.66377258 C-76.26867124 59.09726859 -73.81773586 67.51628428 -71.36373138 75.93479729 C-69.8920669 80.98511023 -68.42341145 86.03629941 -66.95432663 91.08736324 C-65.68696102 95.44385171 -64.41781285 99.79980778 -63.14526367 104.15478516 C-61.89577924 108.43123633 -60.65095036 112.70901815 -59.40925026 116.98773575 C-58.94009039 118.60127789 -58.46925349 120.21433345 -57.99664879 121.82686996 C-57.33928421 124.07065613 -56.68790106 126.31609997 -56.0378418 128.56201172 C-55.84514709 129.21450897 -55.65245239 129.86700623 -55.45391846 130.53927612 C-54.2600257 134.69371053 -53.52516447 138.72251484 -53 143 C-52.34 143 -51.68 143 -51 143 C-50.79632812 141.86175781 -50.59265625 140.72351563 -50.3828125 139.55078125 C-48.84891137 132.68557334 -46.25338328 126.17291948 -43.78311157 119.60321045 C-42.52087212 116.24546771 -41.27215116 112.88274407 -40.02259827 109.52026367 C-39.35877462 107.73406485 -38.69432549 105.94809837 -38.02928162 104.16235352 C-34.40329722 94.4192304 -30.85867013 84.64754352 -27.3125 74.875 C-18.23889793 49.90553867 -9.1175992 24.95342939 0 0 Z " fill="#262626" transform="translate(815,344)"/>
<path d="M0 0 C65.34 0 130.68 0 198 0 C198 26.42739141 198 26.42739141 197.37890625 34.78125 C197.28258156 36.21059875 197.28258156 36.21059875 197.18431091 37.66882324 C196.98429145 40.61310486 196.77376372 43.55650646 196.5625 46.5 C196.42571166 48.48432546 196.28964295 50.46870065 196.15429688 52.453125 C195.8950013 56.24390111 195.62979931 60.03418648 195.35986328 63.82421875 C195.12695771 67.11763606 194.91010481 70.4111995 194.71435547 73.70703125 C194.67148911 74.41307495 194.62862274 75.11911865 194.5844574 75.84655762 C194.4733609 77.70153897 194.36721218 79.55681484 194.26147461 81.41210938 C194 84 194 84 193 85 C190.29490494 85.21503345 187.61017799 85.36759062 184.90014648 85.48071289 C184.05143982 85.5198732 183.20273315 85.55903351 182.32830811 85.59938049 C179.50942086 85.7283173 176.69028222 85.85049771 173.87109375 85.97265625 C171.92194277 86.060494 169.97281062 86.14875079 168.0236969 86.2374115 C162.88312588 86.47010966 157.74231746 86.69708982 152.60144043 86.9229126 C147.35979056 87.15416483 142.11838312 87.39077906 136.87695312 87.62695312 C126.5848666 88.08990775 116.29252153 88.54682697 106 89 C105.93941406 90.04800781 105.87882812 91.09601563 105.81640625 92.17578125 C105.73198262 93.55470048 105.64733553 94.93360605 105.5625 96.3125 C105.52318359 97.00279297 105.48386719 97.69308594 105.44335938 98.40429688 C105.25072585 101.47161535 104.97677283 104.06968152 104 107 C124.46 107 144.92 107 166 107 C165.3363784 117.33353627 164.67092212 127.66693734 164 138 C163.95425842 138.70499634 163.90851685 139.40999268 163.86138916 140.13635254 C163.55590422 144.84106681 163.24733714 149.54557032 162.9375 154.25 C162.85838379 155.4663916 162.77926758 156.6827832 162.69775391 157.93603516 C162.23206263 164.96826636 161.67781198 171.98495775 161 179 C140.40171202 180.54651683 119.65565398 181.29696627 99 181 C98.93941406 182.25296875 98.87882812 183.5059375 98.81640625 184.796875 C98.73197744 186.44792724 98.64733061 188.09896835 98.5625 189.75 C98.52318359 190.575 98.48386719 191.4 98.44335938 192.25 C98.40146484 193.04921875 98.35957031 193.8484375 98.31640625 194.671875 C98.27974854 195.4050293 98.24309082 196.13818359 98.20532227 196.89355469 C98 199 98 199 97 203 C125.71 203 154.42 203 184 203 C184 227.10297969 184 227.10297969 183.37890625 236.80078125 C183.28258156 238.43541573 183.28258156 238.43541573 183.18431091 240.10307312 C182.98284085 243.50659393 182.77321638 246.9095404 182.5625 250.3125 C182.28991234 254.80841364 182.02097786 259.30453676 181.75390625 263.80078125 C181.68877838 264.89021027 181.62365051 265.97963928 181.55654907 267.1020813 C180.89422221 278.39539913 180.42560368 289.69557467 180 301 C139.83595857 302.09416812 99.67073255 303.13068038 59.50247192 304.05820465 C56.64819562 304.12446156 53.79394388 304.19169383 50.93969727 304.25921631 C13.91916703 305.13304969 13.91916703 305.13304969 -1.96512985 305.02695084 C-2.72217107 305.02193188 -3.47921228 305.01691292 -4.25919414 305.01174188 C-4.83366007 305.00786706 -5.40812601 305.00399224 -6 305 C-6.16983019 274.52570524 -5.71721544 244.08520677 -5.0232861 213.61936569 C-4.88304475 207.4202247 -4.74801795 201.22096965 -4.61228943 195.02172852 C-4.38415615 184.63437031 -4.15265516 174.24709195 -3.91870117 163.85986328 C-3.62088503 150.63667792 -3.32849456 137.41337852 -3.03788853 124.19003296 C-2.78460702 112.66591806 -2.52909508 101.14185276 -2.27310061 89.61779785 C-2.19247214 85.98551796 -2.11208388 82.3532328 -2.03170967 78.72094727 C-1.90410273 72.9616928 -1.7750939 67.20247113 -1.6451149 61.44326973 C-1.59836308 59.36442525 -1.5519891 57.28557222 -1.50608253 55.20670891 C-1.09907788 36.8009091 -0.54127434 18.40332769 0 0 Z " fill="#262626" transform="translate(92,348)"/>
<path d="M0 0 C1.38759521 0.01885254 1.38759521 0.01885254 2.80322266 0.03808594 C55.64323093 0.92798468 111.47147865 9.5837107 160.69921875 29.10302734 C163.40331823 30.15723591 166.12252257 31.16661597 168.84375 32.17578125 C184.59634706 38.05633529 199.84518219 44.72404098 215 52 C215.93763184 52.44424316 216.87526367 52.88848633 217.84130859 53.34619141 C239.11643855 63.45349363 259.75241415 75.40742067 279 89 C280.05574219 89.7434668 280.05574219 89.7434668 281.1328125 90.50195312 C291.32471798 97.70808561 301.27802386 105.17254721 311 113 C312.46373047 114.17175781 312.46373047 114.17175781 313.95703125 115.3671875 C319.338701 119.71768416 324.54605087 124.21723357 329.66015625 128.87890625 C331.78804815 130.80786335 333.94720859 132.69036353 336.125 134.5625 C339.58323932 137.5693627 342.7930013 140.77182589 346.00390625 144.0390625 C347.91511619 145.91661121 349.89034635 147.64809414 351.9375 149.375 C355.93859319 152.81123298 359.36805801 156.64221551 362.84765625 160.59765625 C364.67025534 162.63195469 366.53420625 164.54434528 368.5 166.4375 C372.24849565 170.11673938 375.47366717 174.17628353 378.76171875 178.265625 C380.69441974 180.62669078 382.6844615 182.88117292 384.75 185.125 C411.07217308 214.47031375 431.96216552 249.57119631 449.74853516 284.54833984 C450.79013373 286.58886517 451.84730567 288.61918874 452.91796875 290.64453125 C466.1234476 316.08311402 475.84645117 343.56733093 484 371 C484.22139648 371.74266113 484.44279297 372.48532227 484.67089844 373.25048828 C487.59204144 383.14848751 489.97933836 393.08948061 492.0078125 403.20703125 C492.73105022 406.80640924 493.56606679 410.36838241 494.42578125 413.9375 C496.36125524 422.29286129 497.76266315 430.71354379 499.0625 439.1875 C499.25951508 440.46983521 499.25951508 440.46983521 499.46051025 441.77807617 C502.52529823 462.11256734 503.53571089 482.45998903 504 503 C504.02787598 504.21623047 504.05575195 505.43246094 504.08447266 506.68554688 C504.19198451 512.47894986 504.18526708 518.26119715 504.06201172 524.05419922 C504.01796064 526.14679888 503.98419817 528.2396263 503.95751953 530.33251953 C503.55383791 560.55870142 500.0427688 590.38427578 494 620 C493.78118164 621.07475586 493.56236328 622.14951172 493.33691406 623.25683594 C489.67630474 640.85857566 484.60872362 657.92925585 479 675 C478.63503418 676.11938965 478.27006836 677.2387793 477.89404297 678.39208984 C469.55437922 703.80124079 458.92454507 728.08083821 447 752 C446.36843994 753.2691626 446.36843994 753.2691626 445.72412109 754.56396484 C427.21271016 791.46004729 402.84508873 826.44901302 374.9453125 856.87109375 C373.0693637 858.92408992 371.24992085 861.01592731 369.4375 863.125 C366.4306373 866.58323932 363.22817411 869.7930013 359.9609375 873.00390625 C358.08338879 874.91511619 356.35190586 876.89034635 354.625 878.9375 C351.18876702 882.93859319 347.35778449 886.36805801 343.40234375 889.84765625 C341.36804531 891.67025534 339.45565472 893.53420625 337.5625 895.5 C333.88656738 899.24512665 329.83062894 902.46743492 325.74609375 905.75390625 C323.3256426 907.73364937 320.99880859 909.77028882 318.6875 911.875 C292.99172719 934.89223819 262.99757803 953.24804128 233 970 C232.17113281 970.46744629 231.34226562 970.93489258 230.48828125 971.41650391 C208.96083534 983.49142741 185.73957723 992.73353607 162.55419922 1001.07714844 C160.27045636 1001.90228206 157.99559966 1002.74725115 155.72265625 1003.6015625 C94.12934395 1026.45675352 27.110476 1032.72173173 -38.125 1030.5625 C-39.30980957 1030.52334473 -40.49461914 1030.48418945 -41.71533203 1030.44384766 C-52.39043075 1030.05291167 -62.95134909 1029.47226578 -73.4765625 1027.59375 C-77.04648183 1026.99216714 -80.6200145 1026.48480601 -84.20629883 1025.99291992 C-115.75940139 1021.64285812 -148.05755961 1015.19749597 -177.90478516 1003.78833008 C-180.16351489 1002.93847709 -182.43602282 1002.13810674 -184.71484375 1001.34375 C-203.96948491 994.57890586 -222.71923848 986.53969818 -240.83105469 977.12353516 C-243.34165622 975.8230187 -245.86236349 974.54304223 -248.3828125 973.26171875 C-278.59055451 957.81197698 -306.58172072 939.27014416 -333 918 C-333.97582031 917.21882812 -334.95164062 916.43765625 -335.95703125 915.6328125 C-341.338701 911.28231584 -346.54605087 906.78276643 -351.66015625 902.12109375 C-353.78804815 900.19213665 -355.94720859 898.30963647 -358.125 896.4375 C-361.58323932 893.4306373 -364.7930013 890.22817411 -368.00390625 886.9609375 C-369.91511619 885.08338879 -371.89034635 883.35190586 -373.9375 881.625 C-377.93859319 878.18876702 -381.36805801 874.35778449 -384.84765625 870.40234375 C-386.67025534 868.36804531 -388.53420625 866.45565472 -390.5 864.5625 C-394.24849565 860.88326062 -397.47366717 856.82371647 -400.76171875 852.734375 C-402.69441974 850.37330922 -404.6844615 848.11882708 -406.75 845.875 C-433.67090108 815.86219345 -454.98745119 779.86048382 -473 744 C-473.42877441 743.15179687 -473.85754883 742.30359375 -474.29931641 741.4296875 C-487.58618742 714.96999586 -497.38011311 687.26661061 -506 659 C-506.32475311 657.93853256 -506.32475311 657.93853256 -506.65606689 656.85562134 C-509.4818253 647.57778808 -512.01763193 638.31350895 -514 628.8125 C-514.24854736 627.63179932 -514.49709473 626.45109863 -514.75317383 625.23461914 C-521.48520534 592.63391478 -525.43663007 560.28107863 -526 527 C-526.02191406 526.01628418 -526.04382813 525.03256836 -526.06640625 524.01904297 C-526.21456497 517.00743148 -526.16069467 510.01111761 -526 503 C-525.98386658 502.28626221 -525.96773315 501.57252441 -525.95111084 500.8371582 C-525.46203755 480.2538343 -524.24909331 459.92746655 -521.125 439.5625 C-521.00211609 438.75917236 -520.87923218 437.95584473 -520.75262451 437.12817383 C-518.91776991 425.33037801 -516.56063523 413.65974313 -514 402 C-513.83921463 401.26641769 -513.67842926 400.53283539 -513.51277161 399.77702332 C-506.77231651 369.1603121 -496.5730691 339.29920699 -484.10791016 310.5625 C-483.11096209 308.25664569 -482.13492749 305.94354619 -481.16796875 303.625 C-476.73281036 293.08604787 -471.45255797 283.04331346 -466 273 C-465.59910156 272.25492187 -465.19820312 271.50984375 -464.78515625 270.7421875 C-454.95167405 252.49382382 -444.06213807 234.86057985 -432 218 C-431.20190918 216.88310791 -431.20190918 216.88310791 -430.38769531 215.74365234 C-420.05435052 201.35269582 -409.16694623 187.41337692 -397.16015625 174.37109375 C-395.32430391 172.35597192 -393.5296856 170.31556961 -391.7421875 168.2578125 C-387.93733703 163.89991669 -384.02111389 159.65569513 -380.0625 155.4375 C-379.39798828 154.72142578 -378.73347656 154.00535156 -378.04882812 153.26757812 C-374.13225607 149.09268706 -370.08317717 145.22527618 -365.73461914 141.50317383 C-363.77576725 139.80568599 -361.97118615 138.00476292 -360.1875 136.125 C-356.27916744 132.15536027 -352.05173028 128.69546431 -347.7109375 125.2109375 C-345.30014145 123.24478395 -342.986744 121.21910699 -340.6875 119.125 C-295.63776535 78.77126243 -239.37927645 49.28999139 -182.80029297 29.01025391 C-180.54705378 28.19735907 -178.30397333 27.36641698 -176.06640625 26.51171875 C-143.20468755 14.16343522 -107.37018997 6.80727402 -72.484375 3.39453125 C-69.24780443 3.11421845 -69.24780443 3.11421845 -67.14990234 2.50830078 C-57.87950571 0.31650362 -47.61080075 0.75094161 -38.125 0.4375 C-36.86268555 0.3957666 -35.60037109 0.3540332 -34.29980469 0.31103516 C-22.86099016 -0.04254919 -11.44276707 -0.1870969 0 0 Z M-110.53222656 22.46582031 C-113.19126155 23.0414009 -115.85623348 23.58079237 -118.5234375 24.1171875 C-132.30554557 26.93170315 -145.62459843 30.66602753 -159 35 C-160.29609845 35.41510564 -161.59232879 35.82979961 -162.88867188 36.24414062 C-179.11022201 41.43939012 -195.09778547 46.81507849 -210.60693359 53.91162109 C-213.07775027 55.03536122 -215.56178168 56.12421374 -218.05078125 57.20703125 C-244.59248756 68.81711443 -270.32270324 83.27917398 -294 100 C-294.70382812 100.49564453 -295.40765625 100.99128906 -296.1328125 101.50195312 C-309.73725377 111.12090086 -322.905641 121.19502797 -335.54736328 132.04956055 C-337.74525549 133.9330527 -339.95409809 135.8017779 -342.17651367 137.65625 C-350.49006998 144.63003482 -358.30661303 151.99347132 -365.9519043 159.69116211 C-367.82183141 161.57188528 -369.70232638 163.44156819 -371.58398438 165.31054688 C-377.78713725 171.50728449 -383.69101299 177.7499766 -389.11499023 184.6496582 C-391.06292071 187.07845327 -393.1230897 189.35230895 -395.25 191.625 C-419.02925523 217.79869412 -437.94819604 248.9739662 -454.84179688 279.89648438 C-455.86129595 281.74808725 -456.90532912 283.58613662 -457.953125 285.421875 C-485.26130128 334.30121573 -500.69195982 390.95943964 -508.8125 446 C-508.9177298 446.7083902 -509.02295959 447.4167804 -509.13137817 448.14663696 C-518.41888025 511.24888434 -512.92207225 577.28386282 -498 639 C-497.70802734 640.23564697 -497.41605469 641.47129395 -497.11523438 642.74438477 C-494.72345335 652.72718402 -491.76835481 662.45894914 -488.5 672.1875 C-488.24055603 672.9628006 -487.98111206 673.7381012 -487.71380615 674.53689575 C-473.66824654 716.33509526 -454.32491961 756.22044977 -430 793 C-429.43603516 793.85287598 -428.87207031 794.70575195 -428.29101562 795.58447266 C-421.30158814 806.09499674 -413.96900814 816.21316943 -406 826 C-404.88044922 827.3921875 -404.88044922 827.3921875 -403.73828125 828.8125 C-399.60671075 833.91576841 -395.38393466 838.94042337 -391.125 843.9375 C-390.45706421 844.72447266 -390.45706421 844.72447266 -389.77563477 845.52734375 C-381.41873489 855.27730441 -372.59881639 864.58794587 -363.52050781 873.66479492 C-361.99513287 875.19237416 -360.47799328 876.72783582 -358.9609375 878.26367188 C-353.37557992 883.88006734 -347.65917487 889.10936535 -341.43603516 894.03149414 C-338.98399772 896.01293108 -336.6764447 898.09657244 -334.375 900.25 C-327.31331487 906.66566346 -319.64935036 912.31189507 -312 918 C-311.27216309 918.54205078 -310.54432617 919.08410156 -309.79443359 919.64257812 C-290.07675695 934.2625998 -269.41786851 947.02322241 -248 959 C-247.15083008 959.47566406 -246.30166016 959.95132813 -245.42675781 960.44140625 C-222.978089 972.90772047 -199.18946703 982.49616964 -175 991 C-174.14583496 991.30131836 -173.29166992 991.60263672 -172.41162109 991.91308594 C-167.30243222 993.70146003 -162.16785458 995.38937508 -157 997 C-156.24783203 997.23638184 -155.49566406 997.47276367 -154.72070312 997.71630859 C-128.76979013 1005.77096542 -101.29763623 1011.81588262 -74.23901367 1014.35473633 C-68.3654524 1014.90771155 -68.3654524 1014.90771155 -65.98724365 1015.50828552 C-62.61899521 1016.34170951 -59.1568958 1016.36378091 -55.703125 1016.53515625 C-54.47835197 1016.59989388 -54.47835197 1016.59989388 -53.22883606 1016.66593933 C-50.56947867 1016.80391395 -47.90985051 1016.93439755 -45.25 1017.0625 C-44.33797821 1017.10669067 -43.42595642 1017.15088135 -42.48629761 1017.19641113 C-28.30978546 1017.87365636 -14.19308404 1018.42529799 0 1018 C0.70259949 1017.9804425 1.40519897 1017.96088501 2.12908936 1017.94073486 C26.73269757 1017.24517362 50.7565345 1015.26860814 75 1011 C76.21300781 1010.78939941 77.42601562 1010.57879883 78.67578125 1010.36181641 C161.33614129 995.81423099 244.48141529 958.75416401 308.1015625 903.5 C310.81213825 901.16203709 313.57696791 898.91936138 316.375 896.6875 C327.31144741 887.74092196 337.33419929 877.76506247 347.35510254 867.82012939 C348.35121585 866.83205635 349.34880485 865.84546828 350.34802246 864.86053467 C356.28407925 859.00050397 361.82523142 852.99962865 367.00732422 846.46020508 C368.99854053 844.0018019 371.08908751 841.68464244 373.25 839.375 C430.62924484 776.21798398 467.89465571 690.27129451 483 607 C483.18014648 606.04561035 483.36029297 605.0912207 483.54589844 604.10791016 C492.57709593 556.11844571 494.43921742 504.38992756 488 456 C487.7841626 454.27692627 487.7841626 454.27692627 487.56396484 452.51904297 C483.30871848 418.92253653 475.91242281 386.07471082 465 354 C464.49170654 352.50364014 464.49170654 352.50364014 463.97314453 350.97705078 C459.29738197 337.37421006 453.87051879 324.12786131 448 311 C447.70270996 310.33484375 447.40541992 309.6696875 447.09912109 308.984375 C445.1348126 304.62280839 443.08307224 300.30569009 441 296 C440.61650391 295.20045898 440.23300781 294.40091797 439.83789062 293.57714844 C421.92447266 256.37556183 398.83896813 221.76833912 371.95043945 190.45263672 C370.0669473 188.25474451 368.1982221 186.04590191 366.34375 183.82348633 C359.36996518 175.50993002 352.00652868 167.69338697 344.30883789 160.0480957 C342.42811472 158.17816859 340.55843181 156.29767362 338.68945312 154.41601562 C332.49271551 148.21286275 326.2500234 142.30898701 319.3503418 136.88500977 C316.92154673 134.93707929 314.64769105 132.8769103 312.375 130.75 C305.31331487 124.33433654 297.64935036 118.68810493 290 113 C289.27216309 112.45794922 288.54432617 111.91589844 287.79443359 111.35742188 C254.37403605 86.57727433 217.85677853 65.09116475 179 50 C178.11812012 49.65308105 177.23624023 49.30616211 176.32763672 48.94873047 C160.10791361 42.59677476 143.62492227 37.18394173 127 32 C125.91122559 31.65316162 124.82245117 31.30632324 123.70068359 30.94897461 C85.45745899 18.89237569 43.989188 13.92836899 4.02252197 13.04498291 C2.15729772 13.00349846 0.29225579 12.95402137 -1.57275391 12.90380859 C-37.98504428 12.01463956 -74.93477146 14.64171987 -110.53222656 22.46582031 Z " fill="#2A2A2A" transform="translate(533,6)"/>
<path d="M0 0 C38.28 0 76.56 0 116 0 C113.69867505 27.61589934 113.69867505 27.61589934 112.8515625 36.3125 C112.70567436 37.82784836 112.70567436 37.82784836 112.55683899 39.37380981 C112.35230358 41.49538828 112.14706904 43.61689946 111.94113159 45.73834229 C111.61266658 49.12724892 111.28769986 52.5164795 110.96313477 55.90576172 C110.00039579 65.92461359 109.0254967 75.94047527 107.92578125 85.9453125 C106.21561849 101.66104737 104.8579258 117.37066749 103.86328125 133.1484375 C103.82018515 133.83202961 103.77708904 134.51562172 103.732687 135.21992874 C102.75722684 150.80938916 101.89474661 166.40584479 101 182 C128.39 182 155.78 182 184 182 C182.8553125 195.2103125 182.8553125 195.2103125 181.6875 208.6875 C179.81063574 230.31411586 179.81063574 230.31411586 178.03515625 251.94921875 C177.96580368 252.81989487 177.89645111 253.69057098 177.82499695 254.58763123 C177.51163024 258.53548009 177.20312464 262.48363898 176.90112305 266.43237305 C176.79351085 267.80648208 176.68584835 269.18058718 176.578125 270.5546875 C176.48950195 271.71468262 176.40087891 272.87467773 176.30957031 274.06982422 C176.05294146 276.49889324 175.62150066 278.6507275 175 281 C174.16327177 281.06404463 174.16327177 281.06404463 173.30963993 281.12938309 C159.46434452 282.18921307 145.61915824 283.25045973 131.77407932 284.31311417 C125.07754416 284.82706357 118.38097599 285.34057335 111.68432617 285.85302734 C105.20586064 286.34882302 98.72747529 286.84565325 92.24915695 287.34336853 C89.66639391 287.54173889 87.08361237 287.7398687 84.50081253 287.9377594 C70.91209065 288.97974738 57.32603626 290.04403044 43.74560547 291.18945312 C42.62010631 291.28383038 41.49460714 291.37820763 40.33500195 291.47544479 C35.09210995 291.91541355 29.84986747 292.36121303 24.60853577 292.81939697 C14.37081478 293.69520701 4.27817386 294.24399447 -6 294 C-6.18876397 252.61702994 -5.79265985 211.27729207 -4.83873993 169.9056142 C-4.71860286 164.69237646 -4.60189661 159.47907025 -4.48690796 154.26571655 C-3.81117812 123.6844599 -3.08082662 93.10545994 -2.1328125 62.53125 C-2.10092709 61.50281479 -2.06904167 60.47437958 -2.03619003 59.41477966 C-1.41661525 39.60778038 -0.69664023 19.80448651 0 0 Z " fill="#262626" transform="translate(295,346)"/>
<path d="M0 0 C0.14189753 7.99044512 -0.28451586 15.83585715 -0.98828125 23.79296875 C-1.14407906 25.62496574 -1.14407906 25.62496574 -1.30302429 27.49397278 C-1.63515404 31.39220364 -1.97339625 35.28987015 -2.3125 39.1875 C-2.7489228 44.24324995 -3.18240377 49.2992432 -3.61328125 54.35546875 C-3.66956318 55.01532713 -3.72584511 55.67518551 -3.78383255 56.3550396 C-4.69970023 67.12249258 -5.52908894 77.89489976 -6.32421875 88.671875 C-7.67974631 107.02753931 -9.12844713 125.37549497 -10.59375 143.72265625 C-10.65205293 144.45293525 -10.71035587 145.18321426 -10.77042556 145.93562293 C-11.55575537 155.77214767 -12.3427426 165.60853945 -13.13031006 175.44488525 C-14.04616993 186.88373799 -14.96105272 198.32266882 -15.87485981 209.76168573 C-16.16850963 213.4371192 -16.4624371 217.11253006 -16.75698853 220.78789139 C-17.85660424 234.50879245 -18.95331976 248.22968441 -19.9765625 261.95654297 C-20.04787132 262.90828494 -20.11918015 263.86002691 -20.19264984 264.84060955 C-20.50980615 269.07895715 -20.822522 273.31752298 -21.12561035 277.55690002 C-21.23007258 278.96950385 -21.33467563 280.38209726 -21.43945312 281.79467773 C-21.5248938 282.98455795 -21.61033447 284.17443817 -21.69836426 285.40037537 C-22 288 -22 288 -23 289 C-25.41337621 289.20938143 -27.80402196 289.35667805 -30.22265625 289.46484375 C-31.3565126 289.52124275 -31.3565126 289.52124275 -32.51327515 289.57878113 C-35.02948535 289.70288063 -37.54596132 289.82026508 -40.0625 289.9375 C-41.81585672 290.02220797 -43.56919312 290.10733754 -45.32250977 290.19287109 C-48.06446227 290.3263955 -50.80643514 290.45935483 -53.54850769 290.59039307 C-60.00996052 290.89950691 -66.46996134 291.23105345 -72.9296875 291.57421875 C-75.57915526 291.7132378 -78.22864442 291.85184045 -80.87814331 291.99026489 C-82.55897569 292.07875085 -84.23974451 292.16845438 -85.92044067 292.25949097 C-88.29963583 292.38788171 -90.67906116 292.5108559 -93.05859375 292.6328125 C-93.72724457 292.67021042 -94.39589539 292.70760834 -95.08480835 292.74613953 C-102.74018092 293.12784042 -110.30166885 293 -118 293 C-118 197.96 -118 102.92 -118 5 C-103.48 4.34 -88.96 3.68 -74 3 C-63.6018082 2.41562108 -53.20544789 1.82126663 -42.8112793 1.171875 C-28.51838408 0.28516343 -14.32100001 -0.186464 0 0 Z " fill="#262626" transform="translate(600,355)"/>
<path d="M0 0 C7.92 0.66 15.84 1.32 24 2 C24 7.94 24 13.88 24 20 C24.71027344 18.71222656 25.42054688 17.42445313 26.15234375 16.09765625 C27.08064004 14.41922154 28.00903031 12.7408388 28.9375 11.0625 C29.40607422 10.21236328 29.87464844 9.36222656 30.35742188 8.48632812 C31.0293457 7.27299805 31.0293457 7.27299805 31.71484375 6.03515625 C32.12855225 5.2862915 32.54226074 4.53742676 32.96850586 3.76586914 C34 2 34 2 35 1 C43.78553329 0.33839241 52.35111056 1.5670479 61 3 C57.90905929 8.68945214 54.33389747 13.85065979 50.5 19.0625 C48.82295197 21.35370508 47.14870679 23.64642209 45.48828125 25.94970703 C44.56658434 27.21945943 43.6292712 28.47822384 42.66796875 29.71826172 C40.43065868 32.72531719 40.43065868 32.72531719 40.23852539 36.36108398 C41.05791419 39.20070358 42.16875243 41.4226255 43.65234375 43.9765625 C44.18150391 44.894375 44.71066406 45.8121875 45.25585938 46.7578125 C45.81080078 47.70398438 46.36574219 48.65015625 46.9375 49.625 C47.48857422 50.57890625 48.03964844 51.5328125 48.60742188 52.515625 C50.66684708 56.06894675 52.72132819 59.58199229 55 63 C57.17176175 59.74235738 57.8111675 57.28827151 58.75 53.5 C60.29653866 47.42773775 62.07586399 41.46289266 64 35.5 C66.25850016 28.47827207 68.29860271 21.43875088 70.140625 14.296875 C71.03913031 10.84988188 72.02139594 7.42511422 73 4 C87.355 3.01 87.355 3.01 102 2 C108.34631571 21.80819752 113.77592985 41.87025824 119 62 C119.03758423 60.4382605 119.03758423 60.4382605 119.07592773 58.8449707 C120.00043013 20.73704832 120.00043013 20.73704832 121 3 C124.20782685 2.661671 127.41633098 2.33023854 130.625 2 C131.98044922 1.85691406 131.98044922 1.85691406 133.36328125 1.7109375 C134.24628906 1.62070313 135.12929688 1.53046875 136.0390625 1.4375 C136.84553223 1.35371094 137.65200195 1.26992187 138.48291016 1.18359375 C141.31507593 0.97701871 144.16031054 1 147 1 C151.29 10.9 155.58 20.8 160 31 C160.66 22.09 161.32 13.18 162 4 C166.82625 3.505 166.82625 3.505 171.75 3 C172.75772461 2.89558594 173.76544922 2.79117188 174.80371094 2.68359375 C175.60583008 2.60238281 176.40794922 2.52117187 177.234375 2.4375 C178.05131836 2.35371094 178.86826172 2.26992187 179.70996094 2.18359375 C181.80082499 2.01596798 183.90242738 2 186 2 C186.08344233 10.64947113 185.86244576 19.23001375 185.34375 27.86328125 C185.2438678 29.60027534 185.2438678 29.60027534 185.14196777 31.37236023 C184.93146594 35.01928594 184.7158274 38.66588599 184.5 42.3125 C184.35512676 44.80662078 184.2105925 47.30076128 184.06640625 49.79492188 C183.71485003 55.86351434 183.35909236 61.93184905 183 68 C175.6702775 71.66486125 164.10181112 70.14880878 156 70 C151.74304755 59.818423 148.14159588 49.57855957 145 39 C144.19424726 46.20333067 143.73262586 53.38421104 143.4375 60.625 C143.293125 64.04875 143.14875 67.4725 143 71 C135.08 71 127.16 71 119 71 C119 70.01 119 69.02 119 68 C118.35675781 68.13277344 117.71351563 68.26554687 117.05078125 68.40234375 C109.71750143 69.83552397 102.45446622 70.54965069 95 71 C93.80712589 67.12315913 93 64.08378077 93 60 C89.7 60 86.4 60 83 60 C82.34 63.63 81.68 67.26 81 71 C79.44152344 70.90460938 77.88304687 70.80921875 76.27734375 70.7109375 C57.78204831 68.94800646 57.78204831 68.94800646 40 73 C37.09765625 73.34375 37.09765625 73.34375 34 73 C32.05859375 71.09375 32.05859375 71.09375 30.4375 68.5 C29.89996094 67.6646875 29.36242187 66.829375 28.80859375 65.96875 C28.21175781 64.9890625 27.61492188 64.009375 27 63 C25.35 60.36 23.7 57.72 22 55 C21.67 61.27 21.34 67.54 21 74 C15.40037024 74.62218108 10.47000681 75.12073691 4.9375 75.0625 C3.24947266 75.04896484 3.24947266 75.04896484 1.52734375 75.03515625 C0.27630859 75.01775391 0.27630859 75.01775391 -1 75 C-1.20542636 49.98855081 -0.60481558 25.00264413 0 0 Z " fill="#282828" transform="translate(519,217)"/>
<path d="M0 0 C7.73732806 -0.13707865 15.29509996 0.27483294 23 1 C23 6.94 23 12.88 23 19 C23.65484375 17.6284375 24.3096875 16.256875 24.984375 14.84375 C32.03247414 0.90057224 32.03247414 0.90057224 36.91015625 -1.33203125 C40.14295407 -1.31027622 42.86298458 -0.78139509 46 0 C48.58160409 0.34647159 51.16500543 0.6798043 53.75 1 C55.83466778 1.32488329 57.91854313 1.65514324 60 2 C59.34 3.65 58.68 5.3 58 7 C58.66 6.67 59.32 6.34 60 6 C61.73636697 5.7112098 63.48023322 5.46678371 65.2265625 5.24609375 C66.7734375 5.04790039 66.7734375 5.04790039 68.3515625 4.84570312 C69.97191406 4.64364258 69.97191406 4.64364258 71.625 4.4375 C72.71296875 4.29892578 73.8009375 4.16035156 74.921875 4.01757812 C77.61418868 3.67513472 80.30688654 3.33608589 83 3 C83.33580757 4.72427914 83.66528995 6.44979073 83.9921875 8.17578125 C84.1763623 9.13653564 84.36053711 10.09729004 84.55029297 11.0871582 C85.17223189 15.11558018 85.13341294 18.93090538 85 23 C85.66 23 86.32 23 87 23 C87.12181641 21.98873047 87.12181641 21.98873047 87.24609375 20.95703125 C88.22810494 17.10530859 90.03843189 14.08192164 92.0625 10.6875 C92.43955078 10.04232422 92.81660156 9.39714844 93.20507812 8.73242188 C94.13037493 7.15121848 95.06432681 5.5750854 96 4 C96.66531738 4.01047363 97.33063477 4.02094727 98.01611328 4.03173828 C101.0523699 4.07350465 104.08856586 4.09939152 107.125 4.125 C108.69507813 4.15013672 108.69507813 4.15013672 110.296875 4.17578125 C115.67849822 4.20984216 119.9344956 3.9821539 125 2 C137.62475209 -0.37587586 153.45922291 -1.74723724 164.74609375 5.21875 C169.41262435 8.90668406 173.61665261 13.05160623 175 19 C175.78478291 27.09039839 174.61311282 34.16199055 170 40.9375 C168 43 168 43 165 45 C165.63709881 50.40506406 168.48743864 54.49066216 171.29296875 59.00390625 C172.26748176 60.62809461 173.14133206 62.31170121 174 64 C173.67 64.99 173.34 65.98 173 67 C170.45953542 67.50688605 167.91791124 68.00566874 165.375 68.5 C164.66214844 68.64308594 163.94929687 68.78617187 163.21484375 68.93359375 C159.07855065 69.73049426 155.23566321 70.16034056 151 70 C150.80889648 69.42967041 150.61779297 68.85934082 150.42089844 68.27172852 C149.54732687 65.69595386 148.64908342 63.12947492 147.75 60.5625 C147.29947266 59.21575195 147.29947266 59.21575195 146.83984375 57.84179688 C146.53691406 56.98779297 146.23398437 56.13378906 145.921875 55.25390625 C145.51340332 54.06776733 145.51340332 54.06776733 145.09667969 52.85766602 C144.14715391 50.79862342 144.14715391 50.79862342 141.87988281 50.23413086 C140.94934082 50.11823608 140.94934082 50.11823608 140 50 C140.01160156 50.94101562 140.02320313 51.88203125 140.03515625 52.8515625 C140.04417969 54.09679687 140.05320312 55.34203125 140.0625 56.625 C140.07410156 57.85476563 140.08570313 59.08453125 140.09765625 60.3515625 C140 64 140 64 139 70 C131.74 70 124.48 70 117 70 C117 50.86 117 31.72 117 12 C112.71 18.27 108.42 24.54 104 31 C102.4428125 32.87300781 100.885625 34.74601562 99.28125 36.67578125 C94.48665464 43.18902751 94.65422202 50.42708382 94.5 58.1875 C94.44353858 59.6309978 94.38366426 61.07436631 94.3203125 62.51757812 C94.16790468 66.01293111 94.08552582 69.49985595 94 73 C86.08 73 78.16 73 70 73 C70.04382813 70.98003906 70.08765625 68.96007812 70.1328125 66.87890625 C70.22290119 48.92159379 68.17120448 34.84192448 60.16894531 18.40576172 C58.66648254 15.31360045 57.32793052 12.17032419 56 9 C55.66266846 9.47832275 55.32533691 9.95664551 54.9777832 10.44946289 C53.42290365 12.65396022 51.86770364 14.8582313 50.3125 17.0625 C49.78205078 17.81466797 49.25160156 18.56683594 48.70507812 19.34179688 C47.91713867 20.45844727 47.91713867 20.45844727 47.11328125 21.59765625 C46.59459473 22.33902832 46.0759082 23.08040039 45.54150391 23.84423828 C44.54090833 25.24355075 43.5130361 26.62389846 42.45458984 27.97998047 C39.8199134 31.04080199 39.8199134 31.04080199 39.16333008 34.81469727 C40.29381556 37.76741846 41.78069674 40.4074322 43.34375 43.15625 C43.67290405 43.74039673 44.00205811 44.32454346 44.34118652 44.9263916 C45.38965013 46.78683354 46.44405718 48.64379408 47.5 50.5 C48.89083526 52.94490193 50.27541268 55.39319047 51.65625 57.84375 C52.27306641 58.92849609 52.88988281 60.01324219 53.52539062 61.13085938 C54.74194329 63.49790026 55.53226542 65.40391614 56 68 C52.94102269 68.7038474 49.87743931 69.38512829 46.8125 70.0625 C45.94818359 70.26166016 45.08386719 70.46082031 44.19335938 70.66601562 C43.35224609 70.84970703 42.51113281 71.03339844 41.64453125 71.22265625 C40.87471924 71.39547119 40.10490723 71.56828613 39.31176758 71.74633789 C36.54995358 72.04938201 34.64043138 71.88445822 32 71 C30.42260742 69.23413086 30.42260742 69.23413086 29.10546875 66.96484375 C28.38520508 65.75151367 28.38520508 65.75151367 27.65039062 64.51367188 C27.16763672 63.66353516 26.68488281 62.81339844 26.1875 61.9375 C25.68541016 61.08349609 25.18332031 60.22949219 24.66601562 59.34960938 C23.4294444 57.24154986 22.21278085 55.1218355 21 53 C20.67 59.6 20.34 66.2 20 73 C9.11 73.495 9.11 73.495 -2 74 C-2.05099601 61.06886819 -1.88840647 48.15038603 -1.62768555 35.22192383 C-1.5619877 31.91168756 -1.50262532 28.60137255 -1.44335938 25.29101562 C-1.40142829 23.16145069 -1.35912414 21.03189305 -1.31640625 18.90234375 C-1.29969376 17.92514877 -1.28298126 16.9479538 -1.26576233 15.94114685 C-1.14967575 10.55424297 -0.77181003 5.33361143 0 0 Z " fill="#282828" transform="translate(342,218)"/>
<path d="M0 0 C0.96808594 -0.01611328 1.93617188 -0.03222656 2.93359375 -0.04882812 C13.83838349 -0.05614678 24.68234611 2.80525449 32.76953125 10.4609375 C39.8073459 18.09474727 41.14742702 24.23631182 40.8828125 34.4140625 C40.37750801 39.5599184 38.9844203 42.57381119 35.5 46.3125 C35.02304687 46.83457031 34.54609375 47.35664062 34.0546875 47.89453125 C32.91373698 49.07785993 31.71316197 50.20332334 30.5 51.3125 C31.09167969 51.70179688 31.68335938 52.09109375 32.29296875 52.4921875 C38.41784069 56.82855687 42.38715302 60.99879891 44.5 68.3125 C45.41174076 75.08543134 45.42268513 81.62250721 41.8203125 87.60546875 C35.01614385 96.40257437 25.20444744 99.83816573 14.5 101.3125 C9.76749689 101.61015056 5.05335997 101.64564593 0.3125 101.625 C-0.97019775 101.62153564 -2.25289551 101.61807129 -3.57446289 101.61450195 C-15.15322553 101.48151407 -25.01097881 100.55701059 -35.5 95.3125 C-35.5 65.9425 -35.5 36.5725 -35.5 6.3125 C-22.91160476 2.71581565 -12.82684647 -0.04269922 0 0 Z " fill="#272727" transform="translate(391.5,823.6875)"/>
<path d="M0 0 C11.22 0 22.44 0 34 0 C33.3718479 18.09078052 31.79579515 35.99687126 30 54 C38.25 54 46.5 54 55 54 C55.06058594 51.10734375 55.12117187 48.2146875 55.18359375 45.234375 C55.24561941 42.39451084 55.30890847 39.55467739 55.37231445 36.71484375 C55.4152985 34.75979415 55.4569945 32.80471574 55.49731445 30.84960938 C55.55591452 28.01944336 55.61933688 25.18941759 55.68359375 22.359375 C55.70030624 21.50261169 55.71701874 20.64584839 55.73423767 19.76312256 C55.89206375 13.11649699 56.4449787 6.66025559 57 0 C68.55 0 80.1 0 92 0 C90.5625 16.875 90.5625 16.875 90.11547852 22.07373047 C89.21336246 32.70960483 88.54955171 43.33976386 88 54 C95.92 54 103.84 54 112 54 C112 61.25159365 111.83664397 68.04776125 111 75.1875 C110.90460938 76.04408203 110.80921875 76.90066406 110.7109375 77.78320312 C110.47933157 79.85607617 110.24046505 81.92813598 110 84 C105.31955467 85.09901596 100.6404526 85.41091938 95.859375 85.75390625 C94.97775696 85.81907944 94.09613892 85.88425262 93.18780518 85.95140076 C91.32534962 86.08821529 89.46277664 86.22343951 87.60009766 86.35717773 C84.77339016 86.56081496 81.947248 86.77126109 79.12109375 86.98242188 C77.30471756 87.11499581 75.48831214 87.24717004 73.671875 87.37890625 C72.83718689 87.44139053 72.00249878 87.50387482 71.14251709 87.56825256 C65.74765198 87.94959881 60.40849103 88.05389509 55 88 C54.67 82.39 54.34 76.78 54 71 C53.67 75.29 53.34 79.58 53 84 C46.29254964 84.57341018 39.58478655 85.14295874 32.87670898 85.70898438 C30.59634621 85.90194188 28.3160713 86.09594079 26.03588867 86.29101562 C22.75201795 86.57177404 19.46784594 86.84874409 16.18359375 87.125 C15.16978134 87.21249512 14.15596893 87.29999023 13.11143494 87.39013672 C8.05307542 87.81189872 3.07586279 88.09910165 -2 88 C-2.06071873 72.3667285 -1.94040688 56.74426753 -1.62768555 41.11401367 C-1.5617783 37.77594736 -1.50243599 34.4378028 -1.44335938 31.09960938 C-1.40143548 28.9270757 -1.35913172 26.75454931 -1.31640625 24.58203125 C-1.29969376 23.60885452 -1.28298126 22.6356778 -1.26576233 21.63301086 C-1.11199544 14.36598216 -0.5599297 7.27908613 0 0 Z " fill="#282828" transform="translate(542,701)"/>
<path d="M0 0 C6.11281761 5.60842009 10.28512955 12.4146548 11.11328125 20.79296875 C11.15513327 32.02325963 9.72795317 41.35999927 1.8125 49.75 C-0.12352503 51.54993256 -2.08065846 53.1447874 -4.1875 54.75 C-2.82903441 58.33378844 -1.23308603 61.63437216 0.6328125 64.98046875 C1.16777344 65.94791016 1.70273437 66.91535156 2.25390625 67.91210938 C3.38312886 69.94130407 4.5133493 71.96994377 5.64453125 73.99804688 C6.17691406 74.96162109 6.70929688 75.92519531 7.2578125 76.91796875 C7.99281982 78.23704224 7.99281982 78.23704224 8.74267578 79.58276367 C9.8125 81.75 9.8125 81.75 9.8125 83.75 C3.4166272 85.66063149 -3.00865351 87.19169638 -9.5625 88.4375 C-10.57860352 88.63436401 -10.57860352 88.63436401 -11.61523438 88.83520508 C-15.18385607 89.49437442 -18.55835427 89.89712753 -22.1875 89.75 C-24.31908358 84.93995424 -26.13743417 80.13056712 -27.75 75.125 C-28.54888922 72.66155213 -29.36277517 70.20512143 -30.1875 67.75 C-30.44402344 66.79351563 -30.70054687 65.83703125 -30.96484375 64.8515625 C-31.36832031 64.15804687 -31.77179687 63.46453125 -32.1875 62.75 C-35.24022465 61.85169161 -35.24022465 61.85169161 -38.1875 61.75 C-38.17589844 62.59820313 -38.16429687 63.44640625 -38.15234375 64.3203125 C-38.14332031 65.49335937 -38.13429688 66.66640625 -38.125 67.875 C-38.11339844 69.01195312 -38.10179687 70.14890625 -38.08984375 71.3203125 C-38.22548353 77.47293296 -38.74903743 83.61152402 -39.1875 89.75 C-49.7475 89.75 -60.3075 89.75 -71.1875 89.75 C-71.22977694 77.61123418 -71.08859399 65.50050458 -70.75 53.3671875 C-70.70494974 51.68898063 -70.66011362 50.01076801 -70.61547852 48.33255005 C-70.49922867 43.98274907 -70.38013327 39.63303083 -70.26037598 35.2833252 C-70.137958 30.81783742 -70.01832672 26.352275 -69.8984375 21.88671875 C-69.66413406 13.1744052 -69.42681435 4.46217734 -69.1875 -4.25 C-67.78198911 -4.72873793 -66.37555397 -5.2047628 -64.96875 -5.6796875 C-64.18564453 -5.94507324 -63.40253906 -6.21045898 -62.59570312 -6.48388672 C-42.72608773 -12.80493833 -16.86173279 -13.81594493 0 0 Z " fill="#282828" transform="translate(595.1875,833.25)"/>
<path d="M0 0 C1.03833984 -0.020625 2.07667969 -0.04125 3.14648438 -0.0625 C10.6838235 -0.10030484 17.50648799 0.846994 24.3125 4.25 C24.45506667 13.64355936 24.03742332 22.89072209 23.3125 32.25 C22.55630371 32.23428955 21.80010742 32.2185791 21.02099609 32.20239258 C17.57657424 32.13981953 14.13227226 32.10093795 10.6875 32.0625 C9.49769531 32.03736328 8.30789063 32.01222656 7.08203125 31.98632812 C-0.62901959 31.92171038 -5.37912197 32.40325611 -11.375 37.5625 C-16.68941105 43.73870744 -17.21843006 49.03230014 -17.04296875 56.953125 C-16.56920197 61.34718177 -15.7897774 63.1477226 -12.6875 66.25 C-9.56775858 68.18477526 -7.20785856 68.49734917 -3.5625 68.4375 C-2.69367187 68.43105469 -1.82484375 68.42460938 -0.9296875 68.41796875 C1.3489545 68.3897507 1.3489545 68.3897507 3.3125 67.25 C3.8075 65.765 3.8075 65.765 4.3125 64.25 C-0.9675 64.25 -6.2475 64.25 -11.6875 64.25 C-11.80277631 56.52648701 -11.36276622 48.94321161 -10.6875 41.25 C-5.15807185 40.46358035 0.16976998 40.11257918 5.75 40.15234375 C6.51554199 40.1537587 7.28108398 40.15517365 8.06982422 40.15663147 C10.48409142 40.16217147 12.89826144 40.17471221 15.3125 40.1875 C16.96223823 40.19252277 18.61197794 40.19708431 20.26171875 40.20117188 C24.27868255 40.21212114 28.29557487 40.22934334 32.3125 40.25 C32.54132192 46.95709388 32.69855617 53.66317718 32.80688477 60.37329102 C32.85205429 62.65394702 32.91340662 64.93434368 32.99145508 67.21411133 C33.10106611 70.49886021 33.15175812 73.78015797 33.19140625 77.06640625 C33.23785782 78.08021866 33.28430939 79.09403107 33.33216858 80.13856506 C33.33520221 84.42481714 33.30219878 87.13813701 30.37863159 90.4225769 C28.09569394 92.22715701 25.81917835 93.77552738 23.3125 95.25 C22.64863785 95.65291763 21.9847757 96.05583527 21.30079651 96.47096252 C8.63883071 103.77391631 -8.11106657 105.79716467 -22.25 102.125 C-27.25542872 100.29311629 -31.45859817 97.44939389 -35.6875 94.25 C-36.29335938 93.83234375 -36.89921875 93.4146875 -37.5234375 92.984375 C-45.90020539 86.6923231 -51.2602389 76.38630548 -53.28515625 66.26171875 C-55.16560032 52.18577334 -52.97579974 35.19604705 -44.6875 23.25 C-32.4021817 7.86353339 -19.88422789 0.09693713 0 0 Z " fill="#282828" transform="translate(658.6875,822.75)"/>
<path d="M0 0 C10.13610019 7.22567431 16.1281118 15.81923283 19 28 C20.02215742 38.81465017 20.31240198 50.27373287 15 60 C14.51402344 60.92941406 14.02804687 61.85882812 13.52734375 62.81640625 C7.78508013 72.79409835 -0.2781973 79.3961489 -11.19140625 83.13671875 C-24.16511621 86.07742634 -36.06197008 85.23516431 -47.5625 78.34375 C-57.66032479 71.71498099 -64.31555401 62.58345644 -67.49609375 50.93359375 C-69.82701529 37.3636552 -67.82144562 24.44934807 -60 13 C-46.22243993 -4.97903384 -20.35115177 -12.51961667 0 0 Z " fill="#272727" transform="translate(503,837)"/>
<path d="M0 0 C1.2375 -0.020625 2.475 -0.04125 3.75 -0.0625 C10.85235402 -0.09272278 16.71358146 0.42385701 23.25 3.25 C23.95962891 3.529646 24.66925781 3.80929199 25.40039062 4.09741211 C32.8476506 7.12595182 38.12089306 13.53429994 41.75 20.5625 C45.20593978 29.39434611 43.79865794 39.6487919 40.25 48.25 C37.58859849 52.75276334 34.63322762 56.34555826 30.25 59.25 C29.59 59.25 28.93 59.25 28.25 59.25 C28.63333496 59.95608398 29.01666992 60.66216797 29.41162109 61.38964844 C31.15009166 64.59273173 32.88755651 67.79635948 34.625 71 C35.22828125 72.11117187 35.8315625 73.22234375 36.453125 74.3671875 C37.03320312 75.43710937 37.61328125 76.50703125 38.2109375 77.609375 C38.74509277 78.59389648 39.27924805 79.57841797 39.82958984 80.59277344 C41.00722342 82.7958267 42.14785598 85.00850879 43.25 87.25 C39.21027133 88.09291786 35.16793891 88.92262865 31.125 89.75 C29.41183594 90.10771484 29.41183594 90.10771484 27.6640625 90.47265625 C26.55546875 90.69824219 25.446875 90.92382812 24.3046875 91.15625 C23.28874512 91.36572266 22.27280273 91.57519531 21.22607422 91.79101562 C18.25 92.25 18.25 92.25 12.25 92.25 C7.795 79.875 7.795 79.875 3.25 67.25 C0.28 66.755 0.28 66.755 -2.75 66.25 C-2.73839844 67.54035156 -2.72679687 68.83070313 -2.71484375 70.16015625 C-2.7054588 71.87760271 -2.69635936 73.59505075 -2.6875 75.3125 C-2.67912109 76.16005859 -2.67074219 77.00761719 -2.66210938 77.88085938 C-2.65727539 79.13286133 -2.65727539 79.13286133 -2.65234375 80.41015625 C-2.64448853 81.54916382 -2.64448853 81.54916382 -2.63647461 82.71118164 C-2.77947595 85.90918362 -3.29728229 89.08097606 -3.75 92.25 C-13.32 92.25 -22.89 92.25 -32.75 92.25 C-32.64164219 82.23543912 -32.52946043 72.22094071 -32.41066074 62.20649815 C-32.35564003 57.55573824 -32.30225498 52.90497185 -32.25268555 48.25415039 C-32.20473242 43.76074578 -32.15238143 39.26741143 -32.09705925 34.77409172 C-32.07677499 33.06502993 -32.05804027 31.35594897 -32.04092598 29.64685249 C-31.87394206 13.15759236 -31.87394206 13.15759236 -30.75 5.25 C-28.85546779 4.60035977 -26.95931351 3.95544885 -25.0625 3.3125 C-24.00675781 2.95285156 -22.95101563 2.59320312 -21.86328125 2.22265625 C-14.57418679 -0.05461416 -7.58761255 0.03122474 0 0 Z " fill="#282828" transform="translate(434.75,699.75)"/>
<path d="M0 0 C19.47 0 38.94 0 59 0 C59 21 59 21 58 26 C49.42 26.33 40.84 26.66 32 27 C32 28.65 32 30.3 32 32 C37.94 32 43.88 32 50 32 C49.67 39.26 49.34 46.52 49 54 C42.36038532 54.66396147 36.54211987 55.10551806 30 55 C30 56.98 30 58.96 30 61 C38.58 61 47.16 61 56 61 C55.33333333 71 54.66666667 81 54 91 C35.31237338 91.80690717 16.70451692 92.13961801 -2 92 C-2.1444751 74.40960144 -1.93498497 56.83632103 -1.5625 39.25 C-1.54285187 38.27375671 -1.52320374 37.29751343 -1.50296021 36.29168701 C-1.44451121 33.42873827 -1.38123005 30.56593585 -1.31640625 27.703125 C-1.29968872 26.87658417 -1.28297119 26.05004333 -1.26574707 25.19845581 C-1.06262096 16.77395436 -0.4959756 8.43158522 0 0 Z " fill="#292929" transform="translate(481,701)"/>
<path d="M0 0 C19.8 0 39.6 0 60 0 C59.67 8.58 59.34 17.16 59 26 C49.96505456 26.66925522 41.06529951 27.15193239 32 27 C32 28.65 32 30.3 32 32 C37.94 32 43.88 32 50 32 C49.67 39.26 49.34 46.52 49 54 C42.73 54 36.46 54 30 54 C30 56.31 30 58.62 30 61 C38.58 61 47.16 61 56 61 C56 72.25 56 72.25 55.5625 76.3515625 C55.42714844 77.65673828 55.42714844 77.65673828 55.2890625 78.98828125 C55.14597656 80.29345703 55.14597656 80.29345703 55 81.625 C54.90460937 82.53378906 54.80921875 83.44257812 54.7109375 84.37890625 C54.47856232 86.58647043 54.24153511 88.79342261 54 91 C49.70327038 91.14716436 45.40640519 91.28920775 41.109375 91.42724609 C39.65913741 91.47446755 38.20893851 91.52289875 36.75878906 91.57275391 C24.17053473 92.00409968 11.59498732 92.05757101 -1 92 C-1.02357477 83.99136565 -1.04113763 75.9827467 -1.05181217 67.97408581 C-1.05694538 64.25199818 -1.06385948 60.52993493 -1.07543945 56.80786133 C-1.08662048 53.18974394 -1.09234787 49.57164938 -1.09487724 45.95351601 C-1.09751943 43.95876432 -1.10526853 41.96402133 -1.11329651 39.96928406 C-1.11407311 26.60993148 -0.49577066 13.38580777 0 0 Z " fill="#282828" transform="translate(656,701)"/>
<path d="M0 0 C1.12591553 0.00523682 2.25183105 0.01047363 3.41186523 0.01586914 C4.62680664 0.0190918 5.84174805 0.02231445 7.09350586 0.02563477 C8.37290039 0.03401367 9.65229492 0.04239258 10.97045898 0.05102539 C12.2537207 0.05553711 13.53698242 0.06004883 14.85913086 0.06469727 C18.04211921 0.07652994 21.22501661 0.09301471 24.40795898 0.11352539 C30.33361719 11.55643446 35.39570559 23.23834043 40.40795898 35.11352539 C40.73795898 23.89352539 41.06795898 12.67352539 41.40795898 1.11352539 C49.98795898 1.11352539 58.56795898 1.11352539 67.40795898 1.11352539 C67.57039541 17.31655844 66.96019848 33.32358443 65.90795898 49.48852539 C65.7628016 51.79707986 65.61826731 54.10567359 65.47436523 56.41430664 C65.12604324 61.98118386 64.77016713 67.54753528 64.40795898 73.11352539 C60.79925291 73.92282021 57.36333961 74.29166622 53.66967773 74.42993164 C52.60297852 74.47182617 51.5362793 74.5137207 50.43725586 74.55688477 C49.33446289 74.59620117 48.23166992 74.63551758 47.09545898 74.67602539 C45.97333008 74.71920898 44.85120117 74.76239258 43.69506836 74.80688477 C40.9328133 74.91267326 38.17047268 75.01476211 35.40795898 75.11352539 C30.89658318 64.26702612 27.01848528 53.29079295 23.40795898 42.11352539 C22.23424124 53.44047135 21.14913237 64.74886687 20.40795898 76.11352539 C12.15795898 76.11352539 3.90795898 76.11352539 -4.59204102 76.11352539 C-4.76915883 34.3924397 -4.76915883 34.3924397 -4.15454102 14.48852539 C-4.13489288 13.80363037 -4.11524475 13.11873535 -4.09500122 12.41308594 C-3.73370389 0.16352758 -3.73370389 0.16352758 0 0 Z " fill="#282828" transform="translate(448.592041015625,111.886474609375)"/>
<path d="M0 0 C-0.33 7.26 -0.66 14.52 -1 22 C-3.64 21.67 -6.28 21.34 -9 21 C-15.09833898 20.49823793 -20.62530891 20.82670744 -26 24 C-29.13831808 26.92027117 -31.83696627 30.05300106 -32.203125 34.42578125 C-32.45697781 41.74801908 -32.45697781 41.74801908 -29 48 C-26.47524538 49.26237731 -24.68799534 49.09856404 -21.875 49.0625 C-20.96492187 49.05347656 -20.05484375 49.04445312 -19.1171875 49.03515625 C-18.41851563 49.02355469 -17.71984375 49.01195312 -17 49 C-16.67 48.01 -16.34 47.02 -16 46 C-19.96 46 -23.92 46 -28 46 C-28 40.06 -28 34.12 -28 28 C-16.78 28 -5.56 28 6 28 C6.11499626 33.03683626 6.2144576 38.06909639 6.2746582 43.10620117 C6.29975714 44.81827245 6.33384429 46.53023704 6.37719727 48.24194336 C6.43805739 50.70713645 6.46625432 53.17090985 6.48828125 55.63671875 C6.52699089 56.77919319 6.52699089 56.77919319 6.56648254 57.94474792 C6.56859875 61.98137026 6.20029016 63.7532073 3.62353516 66.92822266 C1.15770431 68.87546261 -1.10597836 70.34107344 -3.9375 71.6875 C-4.75089844 72.08324219 -5.56429687 72.47898437 -6.40234375 72.88671875 C-16.31087543 77.13323233 -29.19574609 78.18342361 -39.5625 74.5625 C-48.22994061 70.25908543 -55.45176867 63.04386405 -59 54 C-61.96514867 43.24406856 -61.46661588 29.39310197 -56.4765625 19.46875 C-49.79353745 8.295015 -41.81992299 0.43807026 -29 -3 C-19.28881908 -5.24449482 -8.94084371 -4.47042185 0 0 Z " fill="#282828" transform="translate(577,114)"/>
<path d="M0 0 C23.43 0 46.86 0 71 0 C71 7.15155789 70.97682798 14.14173101 70.5 21.25 C70.335 23.8075 70.17 26.365 70 29 C63.73 29 57.46 29 51 29 C51.04125 31.00191406 51.0825 33.00382813 51.125 35.06640625 C51.20231946 45.73905965 50.02686753 56.32682269 49 66.9375 C48.80665487 68.98887237 48.61394212 71.04030445 48.421875 73.09179688 C47.95519193 78.06191516 47.48000185 83.03115107 47 88 C37.51541962 89.89691608 27.67241209 89 18 89 C18 69.86 18 50.72 18 31 C12.06 31.33 6.12 31.66 0 32 C0 21.44 0 10.88 0 0 Z " fill="#282828" transform="translate(331,702)"/>
<path d="M0 0 C11.49540578 -0.47554582 21.40136396 1.10666532 30.6796875 8.54296875 C36.47251084 14.27455717 38.33775788 19.0484203 38.6171875 27.23046875 C38.33388164 35.52601853 36.44717912 40.25451526 30.4921875 45.98046875 C21.99572669 52.94947593 12.89892346 54.23046875 2.1171875 54.23046875 C2.1171875 62.48046875 2.1171875 70.73046875 2.1171875 79.23046875 C-6.4628125 79.23046875 -15.0428125 79.23046875 -23.8828125 79.23046875 C-23.8828125 54.48046875 -23.8828125 29.73046875 -23.8828125 4.23046875 C-15.3039265 1.89077257 -8.59346182 0.5100747 0 0 Z " fill="#282828" transform="translate(373.8828125,110.76953125)"/>
<path d="M0 0 C1 1 1 1 1.1328125 3.84375 C1.11827274 10.64835785 0.93004317 17.25718702 0 24 C-6.60621762 23.09326425 -6.60621762 23.09326425 -9.375 22.4375 C-14.29621214 21.61729798 -19.24904189 21.4163473 -24 23 C-24.33 23.99 -24.66 24.98 -25 26 C-24.02160156 26.02578125 -23.04320312 26.0515625 -22.03515625 26.078125 C-4.97281004 26.81631894 -4.97281004 26.81631894 0.83984375 32.9375 C5.97546481 39.51109496 6.19177841 44.18332993 5.48828125 52.421875 C4.3358537 60.86686406 1.00569976 65.97437596 -5.60546875 71.3359375 C-14.01716441 77.18158571 -24.10497953 76.88996344 -34 76 C-39.77773888 74.93300551 -44.85671109 72.84234387 -50 70 C-50.27990605 62.10042938 -49.51537186 54.7527507 -48 47 C-45.91866843 47.48501618 -43.92543647 48.02694899 -41.9140625 48.75390625 C-34.591169 51.34066214 -27.70290378 51.29968069 -20 51 C-20.33 50.01 -20.66 49.02 -21 48 C-24.09429213 46.96856929 -26.50506565 46.83162779 -29.75 46.6875 C-36.73604356 46.13131318 -41.02225596 44.3998063 -45.8125 39.125 C-50.61861553 32.25912067 -50.76827054 25.13169467 -50 17 C-48.23303818 9.8965763 -42.84187071 5.06234702 -37 1 C-25.43061778 -5.33646165 -12.15287393 -4.10771395 0 0 Z " fill="#282828" transform="translate(634,113)"/>
<path d="M0 0 C19.47 0 38.94 0 59 0 C59 7.92 59 15.84 59 24 C53.72 24.33 48.44 24.66 43 25 C41.68 41.17 40.36 57.34 39 74 C31.08 74.33 23.16 74.66 15 75 C15 58.83 15 42.66 15 26 C10.05 26 5.1 26 0 26 C0 17.42 0 8.84 0 0 Z " fill="#272727" transform="translate(639,113)"/>
<path d="M0 0 C-0.67866163 12.96377666 -1.66461221 25.89568421 -2.72949219 38.83300781 C-3.00238762 42.15405657 -3.27089042 45.47544186 -3.5390625 48.796875 C-3.71328076 50.92970883 -3.8877507 53.06252212 -4.0625 55.1953125 C-4.14169678 56.17766876 -4.22089355 57.16002502 -4.30249023 58.17214966 C-4.37927002 59.09776703 -4.4560498 60.0233844 -4.53515625 60.97705078 C-4.600979 61.78071075 -4.66680176 62.58437073 -4.73461914 63.41238403 C-5.06349878 66.61914966 -5.54411608 69.80881253 -6 73 C-13.92 73.33 -21.84 73.66 -30 74 C-30 49.91 -30 25.82 -30 1 C-8 0 -8 0 0 0 Z " fill="#272727" transform="translate(443,114)"/>
<path d="M0 0 C3.61968216 2.1564064 5.39674918 4.1606362 7 8 C7.78671167 13.61936904 7.22202478 18.22251498 4 23 C1.74873313 25.58233553 0.29361097 26.90511977 -3.18359375 27.16015625 C-6.9718614 26.90511688 -9.3569779 26.47814464 -12.4375 24.1875 C-16.37939326 18.66884943 -16.97869459 13.70551146 -16 7 C-12.41244514 0.11829625 -7.18784907 -0.90780793 0 0 Z " fill="#FBFBFB" transform="translate(483,864)"/>
<path d="M0 0 C0.33 0 0.66 0 1 0 C1.09796875 0.94101563 1.1959375 1.88203125 1.296875 2.8515625 C2.33561168 11.50173171 3.0232886 16.41126044 9.5625 22.3125 C14.14532166 25.48522269 18.68879104 25.3065343 24.08984375 25.62109375 C26.86693803 25.98267515 28.61617434 26.58119292 31 28 C31 28.99 31 29.98 31 31 C24.59590726 34.20204637 15.62200521 31.98526172 9.15625 29.8515625 C7.03271785 29.01292118 5.02254219 28.05723797 3 27 C3.020625 27.98097656 3.04125 28.96195313 3.0625 29.97265625 C3.0625 34.18167961 2.56404045 38.27198503 2 42.4375 C1.85691406 43.53481445 1.85691406 43.53481445 1.7109375 44.65429688 C1.47794062 46.436723 1.23953734 48.21844104 1 50 C-1.65657337 46.10127458 -1.16049435 42.02123628 -0.9765625 37.515625 C-0.95153656 36.70003113 -0.92651062 35.88443726 -0.90072632 35.04412842 C-0.81872056 32.44565055 -0.72205694 29.84795495 -0.625 27.25 C-0.56674052 25.48570878 -0.50943767 23.72138569 -0.453125 21.95703125 C-0.31317086 17.63757296 -0.16007115 13.31875769 0 9 C-2.97 9 -5.94 9 -9 9 C-9 8.67 -9 8.34 -9 8 C-6.03 8 -3.06 8 0 8 C0 5.36 0 2.72 0 0 Z " fill="#F0F0F0" transform="translate(583,133)"/>
<path d="M0 0 C8 0 8 0 10.9375 2.4375 C11.618125 3.283125 12.29875 4.12875 13 5 C13.33 5.33 13.66 5.66 14 6 C14.55119035 10.37337914 14.55686829 13.93266911 12.5 17.875 C8.53479237 21.24542649 4.21898552 23 -1 23 C-0.67 15.41 -0.34 7.82 0 0 Z " fill="#FAFAFA" transform="translate(559,849)"/>
<path d="M0 0 C0.66 0 1.32 0 2 0 C2.1243417 15.37054735 1.90363196 30.65439298 1 46 C0.01 46 -0.98 46 -2 46 C-2.25394531 45.31035156 -2.50789062 44.62070312 -2.76953125 43.91015625 C-4.67003529 39.41531336 -7.20060261 35.28152052 -9.63671875 31.05859375 C-11 28 -11 28 -10.85546875 25.75 C-9.49812014 22.9733234 -7.1966413 21.14434031 -5 19 C-2.11056243 14.99596366 -1.40407511 11.5566182 -0.8125 6.6875 C-0.57466797 4.80611328 -0.57466797 4.80611328 -0.33203125 2.88671875 C-0.16767578 1.45779297 -0.16767578 1.45779297 0 0 Z " fill="#F2F2F2" transform="translate(517,238)"/>
<path d="M0 0 C9 1 9 1 11.5625 3 C13.53271925 7.11176192 13.91605283 10.52512244 13 15 C11 18 11 18 8 20 C4.04 20.495 4.04 20.495 0 21 C0 14.07 0 7.14 0 0 Z " fill="#F9F9F9" transform="translate(434,723)"/>
<path d="M0 0 C6 0 6 0 8.375 0.9375 C10.66733748 3.84700527 10.56007771 6.20790951 10.3828125 9.8359375 C10 12 10 12 8.375 14.5625 C6 16 6 16 0 16 C0 10.72 0 5.44 0 0 Z " fill="#FAFAFA" transform="translate(483,236)"/>
<path d="M0 0 C0 5.94 0 11.88 0 18 C3.96 18 7.92 18 12 18 C11.67 19.32 11.34 20.64 11 22 C2.01262916 22.78530425 2.01262916 22.78530425 -2.0625 19.625 C-5.72868943 14.65790464 -5.67992988 10.0567438 -5 4 C-2.11627907 0 -2.11627907 0 0 0 Z " fill="#F1F1F1" transform="translate(549,142)"/>
<path d="M0 0 C7 0 7 0 8.9375 1.125 C10.57956173 4.022756 10.5893441 5.72586609 10 9 C7.25 11.875 7.25 11.875 4 14 C2.68 14 1.36 14 0 14 C0 9.38 0 4.76 0 0 Z " fill="#F2F2F2" transform="translate(377,134)"/>
<path d="M0 0 C6 0 6 0 8.375 1.0625 C10 3 10 3 10.4375 6.5 C10 10 10 10 8.9375 11.9375 C5.98831309 13.55479605 3.29132441 13.18630138 0 13 C0 8.71 0 4.42 0 0 Z " fill="#FCFCFC" transform="translate(389,884)"/>
<path d="M0 0 C3.125 0.25 3.125 0.25 5 1.3125 C6.70696395 4.25227124 6.31299766 6.92870803 6.125 10.25 C2.39534861 12.28435531 0.45594958 13.25 -3.875 13.25 C-3.90186553 11.27090602 -3.92133375 9.29171029 -3.9375 7.3125 C-3.94910156 6.21035156 -3.96070313 5.10820313 -3.97265625 3.97265625 C-3.83805711 0.22003236 -3.75483457 0.32650735 0 0 Z " fill="#F4F4F4" transform="translate(392.875,854.75)"/>
<path d="M0 0 C0.33 0 0.66 0 1 0 C1 2.31 1 4.62 1 7 C1.66 7.33 2.32 7.66 3 8 C2.67 14.27 2.34 20.54 2 27 C1.01 27.33 0.02 27.66 -1 28 C-0.67 18.76 -0.34 9.52 0 0 Z " fill="#D8D8D8" transform="translate(515,135)"/>
<path d="M0 0 C2.77042109 2.77042109 2.39796106 4.76533805 2.625 8.625 C2.69976563 9.81351562 2.77453125 11.00203125 2.8515625 12.2265625 C2.92503906 13.59941406 2.92503906 13.59941406 3 15 C1.35 15 -0.3 15 -2 15 C-1.855625 14.195625 -1.71125 13.39125 -1.5625 12.5625 C-0.90311661 8.38640519 -0.43908647 4.20401941 0 0 Z " fill="#D4D4D4" transform="translate(606,247)"/>
</svg>
